<svg xmlns="http://www.w3.org/2000/svg" width="647.465" height="398.634" viewBox="0 0 647.465 398.634"><g transform="translate(-51.266 -54.646)"><path d="M561.733,392.918c-1.143,0-2.321,0-3.5-.009l0-1c1.179,0,2.356.008,3.5.009Zm3.5,0,0-1c1.179,0,2.356-.007,3.5-.014l.006,1C567.589,392.908,566.411,392.913,565.232,392.916Zm-10.5-.026c-1.143-.008-2.322-.017-3.5-.028l.009-1c1.181.011,2.359.02,3.5.028Zm17.509-.015-.01-1c1.18-.012,2.357-.026,3.5-.042l.014,1C574.6,392.849,573.419,392.863,572.238,392.875Zm-24.514-.05c-1.14-.013-2.317-.028-3.5-.044l.013-1c1.181.016,2.357.031,3.5.043Zm31.521-.05-.019-1c1.179-.022,2.355-.048,3.5-.075l.024,1C581.6,392.728,580.426,392.753,579.245,392.775Zm-38.52-.044-3.5-.056.017-1,3.5.056Zm-7-.117-3.5-.066.019-1,3.5.066Zm52.526-.009-.03-1c1.179-.035,2.354-.074,3.493-.116l.036,1C588.605,392.53,587.428,392.57,586.247,392.605Zm-59.524-.127-3.5-.073.021-1,3.5.073Zm66.521-.13-.044-1c1.18-.052,2.354-.108,3.491-.166l.052,1C595.6,392.241,594.427,392.3,593.244,392.349Zm-73.522-.019-3.5-.078.023-1,3.5.078Zm-7-.157-3.5-.08.023-1,3.5.081Zm-7-.161-3.5-.081.023-1,3.5.081Zm94.519-.025-.061-1,.186-.011c1.124-.069,2.235-.141,3.3-.215l.069,1c-1.068.074-2.181.146-3.308.215Zm-101.518-.136-3.5-.079.022-1,3.5.079Zm-7-.156-3.5-.075.021-1,3.5.075Zm-7-.147-3.5-.068.019-1,3.5.068Zm122.5-.044-.078-1c1.179-.092,2.351-.19,3.482-.291l.089,1C609.591,391.311,608.415,391.409,607.233,391.5Zm-129.5-.088-3.5-.059.016-1,3.5.059Zm-7-.113c-1.185-.017-2.363-.033-3.5-.047l.013-1c1.139.014,2.318.03,3.5.047Zm-31.492-.082-.014-1c1.142-.016,2.32-.029,3.5-.04l.009,1C441.56,391.19,440.383,391.2,439.243,391.219Zm24.49-.005c-1.182-.012-2.359-.023-3.5-.032l.008-1c1.14.009,2.318.02,3.5.032Zm-6.995-.055c-1.18-.006-2.356-.01-3.5-.013l0-1c1.14,0,2.317.007,3.5.013Zm-10.5,0,0-1c1.143-.006,2.322-.009,3.5-.011v1C448.559,391.146,447.381,391.149,446.24,391.155Zm167.976-.277-.1-.995c1.172-.119,2.341-.245,3.473-.374l.114.993C616.565,390.633,615.393,390.759,614.216,390.878Zm6.968-.8-.128-.992c1.166-.151,2.33-.31,3.46-.475l.144.99C623.525,389.766,622.355,389.927,621.184,390.078Zm6.943-1.012-.161-.987c1.159-.189,2.316-.389,3.44-.594l.18.984C630.456,388.675,629.292,388.876,628.127,389.066Zm6.9-1.263-.2-.98c1.149-.234,2.3-.481,3.411-.734l.221.975C637.343,387.319,636.188,387.568,635.032,387.8Zm6.848-1.556-.245-.97c1.136-.286,2.27-.588,3.37-.9l.269.963C644.167,385.655,643.025,385.959,641.88,386.247Zm6.766-1.9-.3-.955c1.118-.347,2.233-.711,3.313-1.081l.325.946C650.9,383.635,649.773,384,648.646,384.352Zm6.648-2.286-.355-.935c1.093-.415,2.181-.851,3.233-1.293l.388.922C657.5,381.207,656.4,381.647,655.294,382.066Zm6.484-2.73-.422-.907c1.059-.493,2.11-1.008,3.125-1.531l.458.889C663.912,378.317,662.848,378.838,661.777,379.336Zm6.256-3.228-.5-.868c1.012-.578,2.015-1.181,2.979-1.792l.535.845C670.074,374.912,669.059,375.523,668.033,376.109Zm5.949-3.773-.576-.818c.951-.669,1.889-1.366,2.789-2.072l.617.787C675.9,370.949,674.947,371.656,673.982,372.335Zm-437.37-1.613c-.705-.935-1.426-1.862-2.143-2.756l.78-.625c.723.9,1.45,1.837,2.161,2.779Zm442.917-2.738-.658-.753c.872-.763,1.73-1.556,2.549-2.357l.7.715C681.286,366.4,680.415,367.209,679.528,367.984Zm-447.281-2.7c-.758-.887-1.532-1.764-2.3-2.607l.738-.674c.778.852,1.56,1.737,2.325,2.632Zm452.321-2.232-.739-.673c.777-.853,1.538-1.739,2.261-2.633l.778.629C686.132,361.282,685.359,362.182,684.568,363.05Zm-457.021-2.909c-.815-.831-1.649-1.651-2.479-2.437l.688-.726c.839.794,1.682,1.622,2.505,2.463ZM689,357.565l-.813-.582c.669-.936,1.32-1.9,1.935-2.881l.846.533C690.348,355.628,689.685,356.613,689,357.565Zm-466.513-2.206c-.875-.765-1.771-1.517-2.662-2.233l.626-.779c.9.725,1.809,1.486,2.694,2.26Zm470.273-3.765-.876-.483c.565-1.026,1.1-2.065,1.58-3.09l.9.426C693.882,349.492,693.341,350.551,692.765,351.595ZM217.07,351c-.936-.687-1.894-1.359-2.848-1.995l.555-.832c.966.645,1.937,1.325,2.885,2.021Zm-5.781-3.855c-.993-.6-2.009-1.176-3.022-1.721l.474-.881c1.027.552,2.057,1.139,3.064,1.745ZM695.77,345.2l-.932-.363c.423-1.087.8-2.188,1.135-3.272l.957.291C696.592,342.97,696.2,344.095,695.77,345.2Zm-590.326-1.21-.005-1c1.115-.006,2.284-.038,3.476-.094l.047,1C107.756,343.957,106.572,343.988,105.444,343.995Zm-3.533-.083c-1.183-.069-2.368-.185-3.521-.343l.136-.991c1.128.154,2.286.267,3.444.335Zm103.256-.054c-1.042-.5-2.109-.973-3.172-1.417l.385-.923c1.079.45,2.161.934,3.217,1.437Zm-92.7-.186-.081-1c1.107-.09,2.275-.2,3.472-.332l.108.994C114.765,343.468,113.588,343.581,112.471,343.671Zm-17.564-.724c-1.154-.255-2.306-.561-3.424-.909l.3-.955c1.09.34,2.215.638,3.342.888Zm24.549-.028-.129-.992c1.1-.144,2.235-.3,3.458-.479l.145.99C121.7,342.617,120.564,342.774,119.456,342.919Zm6.939-1.009-.156-.988c1.049-.165,2.178-.348,3.452-.557l.162.987C128.578,341.561,127.446,341.744,126.395,341.91Zm72.362-.728c-1.081-.39-2.191-.76-3.3-1.1l.293-.956c1.121.344,2.246.719,3.342,1.115ZM88.151,340.84c-1.09-.446-2.172-.946-3.217-1.485l.458-.889c1.02.526,2.075,1.013,3.138,1.448Zm45.157-.063-.165-.986,1.206-.2,2.246-.377.165.986-2.246.377Zm6.9-1.15-.161-.987c1.249-.2,2.381-.385,3.46-.553l.154.988C142.587,339.242,141.458,339.423,140.211,339.626Zm51.9-.485c-1.111-.284-2.251-.547-3.388-.783l.2-.979c1.152.239,2.307.506,3.432.793Zm-44.995-.59-.144-.99c1.195-.174,2.363-.337,3.473-.484l.131.991C149.474,338.216,148.31,338.378,147.119,338.552Zm550.7-.116-.977-.212c.245-1.132.442-2.277.585-3.4l.992.126C698.276,336.1,698.074,337.276,697.822,338.436Zm-512.516-.707c-1.129-.182-2.288-.345-3.445-.483l.118-.993c1.171.139,2.344.3,3.487.488Zm-31.261-.09-.115-.993c1.186-.138,2.361-.263,3.49-.372l.1,1C156.393,337.377,155.225,337.5,154.045,337.638ZM81.859,337.6c-.991-.626-1.97-1.305-2.91-2.018l.6-.8c.917.7,1.873,1.359,2.84,1.969Zm79.132-.627-.075-1c1.185-.089,2.365-.162,3.506-.219l.05,1C163.34,336.808,162.169,336.881,160.992,336.969ZM178.4,336.9c-1.137-.09-2.306-.161-3.475-.211l.043-1c1.181.05,2.363.122,3.512.214Zm-10.441-.277-.022-1c1.185-.026,2.367-.034,3.515-.023l-.009,1C170.3,336.592,169.131,336.6,167.956,336.626ZM76.221,333.32c-.868-.782-1.72-1.614-2.532-2.473l.727-.687c.794.84,1.626,1.653,2.474,2.417Zm622.488-1.908-1-.035c.04-1.148.026-2.31-.041-3.452l1-.059C698.735,329.04,698.749,330.233,698.708,331.412Zm-627.347-3.23c-.732-.907-1.444-1.861-2.116-2.833l.823-.568c.658.952,1.355,1.886,2.072,2.774ZM697.3,324.493c-.173-1.127-.4-2.266-.68-3.385l.97-.242c.286,1.148.521,2.317.7,3.475ZM67.342,322.369c-.592-1-1.16-2.048-1.688-3.1l.894-.447c.518,1.035,1.075,2.059,1.655,3.044Zm628.3-4.573c-.37-1.073-.8-2.156-1.263-3.218l.915-.4c.479,1.087.914,2.2,1.293,3.3ZM64.179,316.055c-.452-1.075-.876-2.185-1.262-3.3l.945-.328c.379,1.093.8,2.183,1.239,3.238Zm628.681-4.587c-.536-1-1.124-2.005-1.747-2.991l.845-.535c.636,1.005,1.236,2.032,1.783,3.052ZM61.866,309.386c-.313-1.126-.6-2.279-.841-3.428l.978-.209c.241,1.129.519,2.263.827,3.369Zm627.3-3.775c-.668-.917-1.384-1.839-2.128-2.741l.771-.636c.756.917,1.484,1.855,2.164,2.788Zm-628.77-3.126c-.175-1.158-.317-2.337-.422-3.5l1-.09c.1,1.148.243,2.307.415,3.445Zm624.359-2.23c-.771-.836-1.585-1.674-2.42-2.492l.7-.714c.847.83,1.673,1.68,2.456,2.529Zm-624.994-4.8c-.035-1.173-.036-2.361,0-3.53l1,.03c-.034,1.149-.034,2.316,0,3.47Zm620.033-.067c-.851-.759-1.742-1.518-2.647-2.257l.632-.775c.916.748,1.818,1.516,2.68,2.285Zm-5.387-4.4c-.915-.687-1.865-1.371-2.824-2.035l.569-.822c.969.671,1.93,1.363,2.855,2.058ZM60.966,288.495l-1-.091c.107-1.171.251-2.35.429-3.5l.988.152C61.212,286.186,61.071,287.344,60.966,288.495Zm607.716-1.47c-.967-.619-1.964-1.233-2.966-1.826l.509-.86c1.011.6,2.019,1.219,3,1.844Zm-5.992-3.55c-1.01-.553-2.047-1.1-3.082-1.624l.452-.892c1.045.529,2.091,1.081,3.111,1.639ZM62.024,281.643l-.977-.215c.253-1.151.547-2.3.871-3.423l.96.278C62.561,279.384,62.273,280.514,62.024,281.643Zm594.45-1.317c-1.047-.489-2.117-.968-3.18-1.424l.394-.919c1.072.46,2.152.943,3.209,1.437Zm-6.4-2.7c-1.016-.359-2.128-.714-3.307-1.054l.278-.961c1.2.346,2.328.707,3.362,1.072Zm-6.67-1.949c-1.065-.262-2.176-.519-3.4-.785l.213-.977c1.231.268,2.351.527,3.424.791ZM63.956,274.99l-.939-.343c.4-1.108.85-2.211,1.326-3.276l.913.407C64.789,272.823,64.352,273.9,63.956,274.99Zm572.632-.806c-1.035-.206-2.157-.422-3.431-.662l.185-.983c1.277.24,2.4.457,3.442.664Zm-6.871-1.3-1.225-.224-2.218-.406.181-.983,2.217.406,1.226.224Zm-6.887-1.273c-1.25-.237-2.375-.457-3.441-.671l.2-.98c1.062.214,2.184.432,3.43.669Zm-6.875-1.388c-1.192-.259-2.343-.522-3.423-.782l.234-.972c1.073.258,2.217.519,3.4.777ZM66.779,268.668,65.9,268.2c.557-1.04,1.157-2.067,1.784-3.053l.844.536C67.912,266.644,67.324,267.65,66.779,268.668Zm542.348-.092c-1.172-.317-2.309-.645-3.38-.976l.3-.955c1.06.328,2.185.653,3.345.966Zm-6.721-2.09c-1.144-.412-2.25-.845-3.285-1.286l.392-.92c1.018.434,2.1.859,3.231,1.265Zm-6.488-2.786c-1.086-.56-2.121-1.153-3.076-1.762l.538-.843c.929.593,1.936,1.17,3,1.716Zm-525.426-.87-.8-.6c.706-.943,1.455-1.868,2.228-2.748l.752.66C71.915,261,71.182,261.908,70.491,262.83Zm519.464-2.97a25.3,25.3,0,0,1-2.6-2.438l.735-.678a24.294,24.294,0,0,0,2.5,2.341Zm-514.9-2.227-.7-.717c.74-.719,1.514-1.422,2.3-2.088l.33-.277.64.768-.324.272C76.534,256.244,75.776,256.931,75.053,257.634Zm510.092-3.03a21.723,21.723,0,0,1-1.7-3.149l.915-.4a20.721,20.721,0,0,0,1.622,3Zm-504.79-1.432-.6-.8c.927-.69,1.9-1.373,2.882-2.03l.555.832C82.225,251.82,81.27,252.493,80.356,253.173Zm5.778-3.857-.514-.858c.987-.592,2.017-1.178,3.06-1.743l.476.879C88.125,248.152,87.108,248.731,86.134,249.315Zm496.122-1.225a28.821,28.821,0,0,1-.725-3.485l.99-.144a27.816,27.816,0,0,0,.7,3.364ZM92.249,246l-.441-.9c1.029-.505,2.1-1.007,3.186-1.492l.408.913C94.328,245,93.267,245.5,92.249,246Zm6.356-2.847-.379-.926c1.056-.432,2.156-.864,3.271-1.284l.352.936C100.744,242.3,99.652,242.724,98.605,243.153Zm482.6-2.084c-.045-1.151-.035-2.344.028-3.545l1,.053c-.062,1.171-.071,2.332-.028,3.453Zm-476.081-.377-.329-.944c1.07-.373,2.19-.75,3.327-1.12l.309.951C107.306,239.946,106.193,240.321,105.129,240.692Zm6.637-2.161-.292-.956c.921-.281,1.888-.57,2.873-.857l.488-.142.279.96-.486.141C113.646,237.963,112.684,238.25,111.766,238.53Zm6.709-1.956-.272-.962,2.146-.606,1.223-.345.272.962-1.224.345Zm6.737-1.908-.276-.961c1.225-.351,2.323-.671,3.356-.977l.284.959C127.541,233.993,126.441,234.314,125.213,234.666Zm457.328-.549-.994-.106c.121-1.132.258-2.3.408-3.486l.992.126C582.8,231.825,582.661,232.991,582.541,234.117Zm-450.607-1.447-.3-.955c1.152-.358,2.271-.715,3.326-1.063l.313.95C134.215,231.95,133.091,232.31,131.933,232.669Zm6.665-2.2-.334-.943c1.124-.4,2.225-.8,3.272-1.2l.358.934C140.839,229.658,139.73,230.066,138.6,230.467Zm6.56-2.522-.387-.922c1.093-.459,2.165-.931,3.186-1.4l.42.907C147.345,227,146.262,227.482,145.158,227.945Zm438.257-.755-.99-.142c.16-1.11.336-2.277.524-3.467l.988.156C583.75,224.922,583.574,226.084,583.415,227.19Zm-431.874-2.21-.458-.889c1.049-.541,2.075-1.1,3.05-1.666l.5.865C153.645,223.864,152.6,224.432,151.541,224.98Zm6.1-3.539-.548-.836c.982-.644,1.937-1.314,2.84-1.99l.6.8C159.609,220.1,158.637,220.786,157.637,221.441ZM584.5,220.288l-.986-.167c.183-1.08.378-2.209.6-3.452l.985.174C584.88,218.084,584.684,219.21,584.5,220.288ZM163.281,217.2l-.655-.756c.882-.764,1.731-1.559,2.526-2.364l.712.7C165.051,215.6,164.182,216.417,163.281,217.2Zm422.436-3.8-.984-.179q.246-1.355.493-2.707l.135-.737.984.18-.134.737Q585.963,212.046,585.717,213.4Zm-417.472-1.242-.768-.64c.74-.888,1.443-1.813,2.091-2.749l.822.569C169.725,210.3,169,211.248,168.245,212.158Zm418.725-5.646-.984-.177c.229-1.271.428-2.4.61-3.443l.985.171C587.4,204.111,587.2,205.24,586.97,206.513Zm-414.7-.179-.871-.491c.557-.988,1.086-2.025,1.57-3.081l.909.417C173.383,204.26,172.842,205.321,172.272,206.334Zm2.958-6.424-.938-.347c.391-1.057.757-2.164,1.087-3.29l.96.282C176,197.7,175.628,198.832,175.23,199.91Zm412.936-.3-.987-.162c.2-1.212.377-2.34.545-3.451l.989.149C588.545,197.26,588.366,198.392,588.166,199.608Zm-410.937-6.469-.975-.224c.251-1.094.482-2.239.687-3.4l.985.173C177.719,190.867,177.484,192.029,177.229,193.139Zm411.981-.467-.991-.133c.159-1.179.3-2.344.433-3.463l.994.114C589.517,190.315,589.37,191.487,589.21,192.672ZM178.459,186.2l-.992-.13c.145-1.107.276-2.272.388-3.46l1,.094C178.738,183.907,178.606,185.083,178.459,186.2Zm411.55-.505-1-.092c.108-1.173.2-2.343.277-3.476l1,.066C590.212,183.337,590.118,184.516,590.009,185.7ZM179.129,179.2l-1-.065c.072-1.1.134-2.275.185-3.484l1,.042C179.264,176.913,179.2,178.093,179.129,179.2Zm411.344-.516-1-.038c.045-1.169.072-2.341.082-3.483l1,.008C590.546,176.326,590.518,177.508,590.473,178.687Zm-411.041-6.5-1-.025c.027-1.079.049-2.221.067-3.494l1,.014C179.482,169.961,179.46,171.108,179.432,172.19Zm410.095-.508c-.029-1.163-.077-2.334-.144-3.48l1-.059c.068,1.157.117,2.339.146,3.514Zm-409.989-6.5-1-.008q.008-1,.015-1.995.006-.753.012-1.505l1,.008q-.006.752-.012,1.5Q179.545,164.184,179.537,165.182Zm409.579-.453c-.109-1.157-.234-2.322-.373-3.467l.993-.12c.139,1.153.265,2.327.375,3.489l-.5.051ZM179.6,158.185l-1-.013c.017-1.285.037-2.432.063-3.5l1,.024C179.637,155.76,179.616,156.9,179.6,158.185Zm408.681-.378c-.17-1.148-.357-2.306-.556-3.442l.985-.173c.2,1.145.389,2.312.56,3.468ZM179.772,151.2l-1-.04c.05-1.238.109-2.385.18-3.507l1,.063C179.88,148.831,179.822,149.971,179.772,151.2Zm407.3-.262c-.232-1.138-.482-2.284-.744-3.406l.974-.227c.264,1.131.516,2.286.75,3.433Zm-248.959-6.488c-1.109,0-2.227-.018-3.326-.054l.032-1c1.15.037,2.321.055,3.482.053l0,1Zm3.706-.066-.035-1c1.149-.041,2.32-.1,3.479-.18l.068,1C344.164,144.283,342.983,144.344,341.823,144.385Zm-161.6-.142-1-.093c.113-1.2.245-2.381.393-3.5l.991.131C180.465,141.887,180.334,143.051,180.222,144.243Zm151.055-.02c-.4-.027-.806-.057-1.205-.089-.764-.061-1.541-.138-2.307-.229l.118-.993c.754.089,1.517.165,2.269.225.4.032.8.061,1.193.088Zm254.214-.072c-.3-1.123-.612-2.252-.938-3.356l.959-.283c.329,1.113.648,2.252.946,3.385Zm-236.655-.241-.1-1c1.143-.114,2.308-.248,3.462-.4l.129.992C351.165,143.66,349.99,143.795,348.837,143.91Zm-24.562-.52c-1.141-.2-2.3-.439-3.455-.707l.226-.974c1.134.264,2.279.5,3.4.7ZM355.807,143l-.158-.987c1.134-.181,2.289-.383,3.434-.6l.185.983C358.115,142.618,356.95,142.821,355.807,143Zm-38.4-1.206c-1.108-.317-2.239-.669-3.363-1.048l.319-.948c1.11.374,2.226.722,3.319,1.034Zm45.3-.1-.212-.977c1.122-.243,2.265-.506,3.4-.782l.236.972C364.993,141.192,363.842,141.457,362.712,141.7Zm6.825-1.659-.26-.966c1.108-.3,2.238-.616,3.358-.946l.282.959C371.79,139.422,370.652,139.742,369.537,140.043Zm-58.8-.488c-1.069-.411-2.166-.857-3.259-1.325l.394-.919c1.082.464,2.167.9,3.225,1.311Zm65.54-1.492-.3-.953c1.093-.348,2.208-.715,3.315-1.092l.322.947C378.5,137.344,377.374,137.714,376.274,138.063Zm207.241-.6c-.363-1.1-.747-2.211-1.14-3.292l.94-.342c.4,1.091.784,2.208,1.15,3.322Zm-402.371-.12-.984-.177c.213-1.186.455-2.348.719-3.453l.973.232C181.592,135.037,181.354,136.18,181.144,137.348Zm123.122-.557c-1.031-.483-2.094-1-3.16-1.538l.45-.893c1.057.533,2.112,1.047,3.134,1.525Zm78.654-.99-.341-.94c1.078-.391,2.178-.8,3.27-1.22l.358.934C385.109,134.994,384,135.407,382.92,135.8ZM297.99,133.63c-.994-.533-2.029-1.1-3.076-1.692l.491-.871c1.04.586,2.069,1.152,3.057,1.682Zm91.481-.342-.374-.927c1.063-.429,2.149-.878,3.227-1.334l.389.921C391.631,132.406,390.54,132.857,389.471,133.288Zm191.66-2.367c-.432-1.078-.886-2.159-1.349-3.211l.915-.4c.467,1.063.926,2.153,1.362,3.242Zm-398.368-.316-.955-.3c.355-1.147.749-2.27,1.172-3.338l.93.368C183.5,128.384,183.111,129.483,182.764,130.605Zm213.171-.048-.4-.915c1.048-.462,2.12-.944,3.186-1.432l.416.909C398.063,129.61,396.987,130.093,395.934,130.557Zm-104.061-.37c-.971-.569-1.956-1.156-3.013-1.795l.517-.856c1.052.636,2.034,1.221,3,1.788Zm110.438-2.55-.428-.9c1.035-.491,2.094-1,3.147-1.517l.44.9C404.412,126.633,403.35,127.146,402.311,127.638Zm-116.441-1.074c-.9-.559-1.878-1.164-2.974-1.851l.531-.848c1.095.686,2.066,1.29,2.969,1.848Zm122.739-2.008-.45-.893c1.021-.515,2.069-1.049,3.112-1.589l.459.888C410.685,123.5,409.634,124.04,408.61,124.556Zm169.716-.01c-.5-1.047-1.03-2.093-1.565-3.111l.885-.465c.54,1.028,1.072,2.085,1.581,3.142Zm-393.009-.363-.895-.447c.532-1.066,1.114-2.107,1.73-3.095l.849.529C186.4,122.132,185.835,123.146,185.317,124.183Zm94.615-1.333-.626-.394-2.336-1.47.532-.847,2.337,1.47.626.394Zm134.9-1.514-.468-.884c1.009-.534,2.045-1.09,3.081-1.65l.476.879C416.888,120.244,415.848,120.8,414.837,121.336Zm-140.832-2.2c-1.074-.668-2.047-1.268-2.976-1.835l.521-.854c.931.568,1.907,1.17,2.983,1.839Zm301.08-.748c-.577-1.007-1.178-2.012-1.787-2.988l.849-.529c.615.986,1.222,2,1.806,3.02Zm-386.118-.045-.792-.61a35.434,35.434,0,0,1,2.306-2.7l.727.687A34.454,34.454,0,0,0,188.968,118.338ZM421,118l-.483-.876c1-.55,2.025-1.122,3.055-1.7l.489.872C423.03,116.876,422,117.45,421,118Zm-152.965-2.507c-1.038-.617-2.053-1.209-3.016-1.76l.5-.868c.968.554,1.987,1.148,3.03,1.768Zm159.075-.922-.5-.869c.984-.561,2-1.146,3.033-1.74l.5.866C429.119,113.424,428.1,114.011,427.112,114.572ZM193.7,113.329l-.656-.755c.877-.762,1.812-1.5,2.78-2.2l.584.812C195.463,111.867,194.552,112.587,193.7,113.329Zm377.7-.851c-.652-.96-1.328-1.915-2.011-2.84l.8-.594c.691.935,1.375,1.9,2.034,2.872Zm-309.426-.448c-1.047-.571-2.084-1.121-3.081-1.633l.457-.89c1.005.516,2.049,1.07,3.1,1.645Zm171.205-.961-.5-.864c.968-.565,1.983-1.16,3.017-1.77l.508.862C435.165,109.908,434.148,110.5,433.18,111.07ZM199.3,109.292l-.514-.858c.988-.591,2.032-1.163,3.1-1.7l.447.894C201.285,108.154,200.263,108.713,199.3,109.292Zm56.474-.443c-1.068-.51-2.134-1-3.168-1.447l.4-.917c1.044.455,2.12.947,3.2,1.461Zm183.443-1.333-.51-.86c.949-.563,1.932-1.148,3.007-1.79l.512.859C441.147,106.367,440.163,106.953,439.214,107.516Zm128.053-.634c-.726-.9-1.478-1.8-2.235-2.666l.753-.658c.766.876,1.527,1.784,2.261,2.7Zm-361.775-.7-.388-.922c1.091-.459,2.195-.89,3.281-1.281l.339.941C207.653,105.307,206.566,105.731,205.491,106.183Zm43.9-.11c-1.1-.427-2.2-.828-3.267-1.192l.321-.947c1.085.368,2.2.775,3.309,1.207Zm195.842-2.144-.514-.858,3-1.8.514.858ZM242.8,103.844c-1.124-.32-2.256-.61-3.364-.862l.221-.975c1.125.255,2.274.55,3.416.875Zm-30.779-.006-.284-.959c1.134-.336,2.282-.639,3.413-.9l.225.974C214.267,103.21,213.138,103.508,212.024,103.839Zm24.011-1.525c-1.145-.19-2.3-.345-3.437-.46l.1-.995c1.156.118,2.333.275,3.5.469Zm-17.255-.035-.163-.987c1.161-.192,2.34-.347,3.5-.461l.1,1C221.075,101.939,219.919,102.091,218.779,102.279Zm343.908-.632c-.8-.838-1.624-1.668-2.453-2.466l.693-.72c.84.808,1.675,1.648,2.483,2.5Zm-333.548-.032c-1.152-.042-2.318-.045-3.466-.01l-.031-1c1.17-.036,2.358-.033,3.532.01Zm222.094-1.282-.514-.858,1.721-1.029c.427-.255.861-.512,1.288-.763l.506.863c-.426.25-.857.5-1.281.758Zm106.443-3.508c-.867-.764-1.762-1.518-2.66-2.241l.627-.779c.909.732,1.815,1.5,2.694,2.269Zm-100.413-.015-.489-.873c1.021-.572,2.057-1.138,3.08-1.684l.471.882C459.307,95.677,458.277,96.241,457.263,96.809Zm6.157-3.286-.453-.892c1.045-.53,2.1-1.053,3.148-1.555l.433.9C465.511,92.476,464.458,93,463.42,93.523Zm88.84-1.059c-.93-.683-1.889-1.353-2.849-1.994l.555-.832c.972.648,1.943,1.328,2.885,2.019ZM469.709,90.5l-.413-.911c1.068-.485,2.15-.96,3.215-1.414l.392.92C471.845,89.547,470.771,90.019,469.709,90.5Zm76.767-1.894c-.766-.463-1.551-.919-2.334-1.355-.226-.126-.456-.252-.684-.375l.475-.88c.232.125.466.254.7.382.793.442,1.588.9,2.364,1.372Zm-70.348-.838-.369-.929c1.091-.434,2.2-.857,3.28-1.257l.346.938C478.307,86.918,477.212,87.338,476.128,87.769Zm6.544-2.41-.321-.947c1.114-.377,2.239-.741,3.344-1.081l.294.956C484.893,84.624,483.777,84.984,482.671,85.359Zm57.686-.037c-1.043-.484-2.116-.942-3.19-1.363l.365-.931c1.092.428,2.184.895,3.246,1.387ZM489.334,83.31l-.266-.964c1.135-.313,2.28-.61,3.4-.882l.236.972C491.594,82.706,490.46,83,489.334,83.31Zm44.566-.519c-1.091-.353-2.211-.681-3.331-.972l.252-.968c1.139.3,2.278.629,3.387.989Zm-37.795-1.119-.2-.979c1.154-.24,2.317-.46,3.456-.655l.169.986C498.4,81.217,497.249,81.435,496.106,81.672Zm31.081-.631c-1.122-.225-2.273-.423-3.422-.589l.143-.99c1.167.168,2.336.369,3.476.6ZM502.969,80.5l-.132-.991c1.169-.156,2.346-.289,3.5-.4l.093,1C505.289,80.214,504.125,80.346,502.969,80.5Zm17.347-.452c-1.138-.1-2.3-.181-3.467-.228l.041-1c1.179.048,2.362.126,3.517.231ZM509.9,79.859l-.051-1c1.178-.06,2.363-.094,3.521-.1l.006,1C512.23,79.766,511.061,79.8,509.9,79.859Z" fill="#9fafc9"/><path d="M357.694,54.646a4.195,4.195,0,1,1-4.194,4.195A4.2,4.2,0,0,1,357.694,54.646Zm0,7.39a3.195,3.195,0,1,0-3.194-3.195A3.2,3.2,0,0,0,357.694,62.036Z" fill="#9fafc9"/><path d="M519.838,102.109a4.195,4.195,0,1,1,4.2-4.194A4.2,4.2,0,0,1,519.838,102.109Zm0-7.389a3.195,3.195,0,1,0,3.2,3.2A3.2,3.2,0,0,0,519.838,94.72Z" fill="#9fafc9"/><path d="M660.933,324.145a4.194,4.194,0,1,1,4.2-4.194A4.2,4.2,0,0,1,660.933,324.145Zm0-7.389a3.194,3.194,0,1,0,3.2,3.195A3.2,3.2,0,0,0,660.933,316.756Z" fill="#9fafc9"/><path d="M99.949,293.348a4.194,4.194,0,1,1,4.195-4.194A4.2,4.2,0,0,1,99.949,293.348Zm0-7.389a3.194,3.194,0,1,0,3.195,3.195A3.2,3.2,0,0,0,99.949,285.959Z" fill="#9fafc9"/><rect width="5.552" height="5.552" rx="1.094" transform="translate(375.363 72.38)" fill="#e9eff4"/><rect width="5.552" height="5.552" rx="1.094" transform="translate(550.188 152.857)" fill="#e9eff4"/><rect width="5.552" height="5.552" rx="1.094" transform="translate(145.32 138.432)" fill="#e9eff4"/><path d="M10.557.5H0v-1H10.557Z" transform="translate(123.882 113.884)" fill="#9fafc9"/><path d="M10.557.5H0v-1H10.557Z" transform="translate(78.798 272.532)" fill="#9fafc9"/><path d="M13.978.5H0v-1H13.978Z" transform="translate(552.163 135.018)" fill="#9fafc9"/><path d="M13.978.5H0v-1H13.978Z" transform="translate(667.193 264.855)" fill="#9fafc9"/><path d="M12.065.5H0v-1H12.065Z" transform="translate(442.299 68.119)" fill="#9fafc9"/><rect width="5.552" height="5.552" rx="1.094" transform="translate(676.413 182.236)" fill="#e9eff4"/><path d="M296.916,368.112C252.876,315.574,226.19,254.657,219.9,192.3c-2.388-23.668-1.554-48.529,11.37-70.115,1.47-2.455,5.928-2.74,7.857-.51,30.42,35.174,54.582,73.967,64.257,115.487,9.852,42.277,4.432,85.784-1.015,128.663" fill="#e9eff4"/><path d="M258.887,393.945c-20.08-70.394-69.322-124.339-131.408-154.994a2.937,2.937,0,0,0-3.932,3.765c16.792,42.283,35.012,85.163,67.01,117.992,16.936,17.375,37.219,31.328,58.506,43.114" fill="#e9eff4"/><path d="M250.07,410.843c-46.62-38.832-99.434-47.9-152.8-51.774a2.511,2.511,0,0,0-2.051,4.189C113.8,383.43,138.054,398,163.733,407.8c27.6,10.526,56.912,15.8,86.224,19.424" fill="#e9eff4"/><path d="M439.947,322.3c-2.246-59.1-7.413-98.3-23.17-155.31-2.118-7.664-12.437-29.477-19.4-39.382a2.192,2.192,0,0,0-3.935.786,438.884,438.884,0,0,0-9.011,122.161c1.067,15.986,3.049,32.078,8.5,47.145,6.226,17.217,16.752,32.5,27.451,47.36" fill="#e9eff4"/><path d="M430.6,381.793c7.591-47.388,2.848-95.707,7.921-143.365s22.122-97.382,63.283-127.854c1.345-1,3-2.029,4.687-1.632,2.179.512,2.839,2.955,3.063,4.966,2.857,25.559-.609,51.328-4.8,76.738A1352.637,1352.637,0,0,1,467.1,354.422" fill="#e9eff4"/><path d="M460.233,395.955c9.1-79.55,49.355-156.85,100.524-218.538a1.265,1.265,0,0,1,2.213.574c14.628,79.664-20.325,166.454-86.281,213.545" fill="#e9eff4"/><path d="M476.287,405.645c32.921-47.8,86.428-76.992,140.185-99.031a.923.923,0,0,1,1.22,1.12C599.8,381.657,539.647,414.787,481.4,422.449" fill="#e9eff4"/><path d="M242.217,409.58c-.263-.077-26.661-7.8-57.518-17.473-18.124-5.681-34.217-10.912-47.833-15.548-17.026-5.8-30.207-10.678-39.176-14.5l.392-.92c20.267,8.646,58.451,21.1,86.914,30.017,30.847,9.669,57.238,17.391,57.5,17.468Z" fill="#fff"/><path d="M240.8,387.463c-16.777-29.343-46.581-67.089-68.629-93.587-23.9-28.718-44.078-50.773-44.279-50.992l.737-.676c.2.22,20.4,22.292,44.31,51.029,14.044,16.879,26.6,32.72,37.327,47.085,13.411,17.963,23.976,33.657,31.4,46.645Z" fill="#fff"/><path d="M304.671,357.767c-11-20.724-21.623-45.744-31.586-74.367-7.968-22.892-15.532-48.127-22.481-75.005-6.183-23.912-10.724-44.725-13.446-57.974-2.949-14.357-4.456-23.176-4.471-23.263l.986-.168c.015.087,1.52,8.894,4.466,23.239,2.719,13.238,7.258,34.034,13.435,57.925C262.483,250.342,280.7,310.463,305.555,357.3Z" fill="#fff"/><path d="M416.611,320.652c-7.019-65.218-18.467-179.237-18.581-180.381l.995-.1c.115,1.144,11.562,115.159,18.581,180.373Z" fill="#fff"/><path d="M442.26,348.2l-1-.056c1.094-19.591,4.821-43.547,11.076-71.2,5-22.115,11.623-46.635,19.68-72.879,13.717-44.679,27.02-79.326,27.153-79.671l.933.359c-.133.344-13.426,34.965-27.132,79.612C460.326,245.558,444.732,303.95,442.26,348.2Z" fill="#fff"/><path d="M465.7,373.547l-.707-.707c.457-.457,4.6-5.5,11.255-14.709,5.8-8.021,14.817-21.046,24.86-37.547,17.294-28.415,40.887-72.641,55.075-121.97l.961.276a456.717,456.717,0,0,1-25.54,67.15A579.928,579.928,0,0,1,501.962,321.1c-10.06,16.53-19.1,29.578-24.9,37.613C470.787,367.393,466.334,372.913,465.7,373.547Z" fill="#fff"/><path d="M485.354,410.092l-.3-.955c41.834-13.016,95.733-42.962,121.551-87.974l.867.5a148.794,148.794,0,0,1-23.062,29.973,205.346,205.346,0,0,1-30.089,25.038,254.008,254.008,0,0,1-34.042,19.642A258.928,258.928,0,0,1,485.354,410.092Z" fill="#fff"/><path d="M278.194,402.512a543,543,0,0,0-75.644-82.12l-.916-.808c-5.419-4.774-11.022-9.71-14.769-15.991a28.22,28.22,0,0,1-3.845-11.042,21.67,21.67,0,0,1,.071-5.792,17.913,17.913,0,0,1,1.765-5.513,19.218,19.218,0,0,1,6.686-7.208,25.23,25.23,0,0,1,9.27-3.606,35.163,35.163,0,0,1,9.829-.263,62.758,62.758,0,0,1,9.68,1.86c11.469,3.041,21.224,7.811,28.992,14.179a66.152,66.152,0,0,1,9.926,10.174,83.643,83.643,0,0,1,7.788,11.917,131.048,131.048,0,0,1,10.531,26.709c2.054,7.187,3.759,14.6,5.407,21.763,2.54,11.042,5.167,22.46,9.122,33.256l-.939.344c-3.977-10.854-6.611-22.3-9.158-33.375-1.646-7.153-3.347-14.55-5.394-21.712-6.383-22.337-15.515-38.136-27.917-48.3C241.021,280.706,231.394,276,220.064,273c-4.818-1.277-12.038-2.831-19.078-1.58-6.856,1.218-12.554,5.064-15.242,10.288-3.68,7.148-1.39,15.73,1.98,21.377,3.667,6.146,9.211,11.03,14.572,15.753l.917.808A544,544,0,0,1,279,401.914Z" fill="#9fafc9"/><path d="M283.878,396.516c-6.441-21.312-26.838-57.38-39.43-73.034-12.369-15.377-35.711-37.637-53.364-48.271l.516-.857a141.847,141.847,0,0,1,13.974,9.8c4.721,3.7,9.636,7.886,14.609,12.445a253.865,253.865,0,0,1,25.044,26.259c6.3,7.835,14.591,20.773,22.173,34.611,3.9,7.112,7.365,14,10.307,20.476a151.76,151.76,0,0,1,7.128,18.285Z" fill="#9fafc9"/><path d="M219.147,335.317l-.294-.956c.052-.016,5.26-1.61,11.738-2.886a88.063,88.063,0,0,1,10.4-1.474,34.483,34.483,0,0,1,9.689.414l-.216.976c-4.4-.972-11.208-.6-19.68,1.065C224.357,333.722,219.2,335.3,219.147,335.317Z" fill="#9fafc9"/><path d="M193.236,311.386l-.235-.972a132.225,132.225,0,0,1,14.146-2.407,100.442,100.442,0,0,1,12.932-.722,48.48,48.48,0,0,1,12.667,1.646l-.28.96c-7.713-2.253-17.963-1.728-25.2-.891A131.085,131.085,0,0,0,193.236,311.386Z" fill="#9fafc9"/><path d="M225.675,301.637l-.989-.145c.007-.046.674-4.643,1.007-10.3.439-7.453.1-13.354-.972-17.063l.961-.278c1.122,3.874,1.462,9.731,1.009,17.409C226.354,296.959,225.681,301.591,225.675,301.637Z" fill="#9fafc9"/><path d="M247.785,326.422l-.987-.164c.011-.066,1.1-6.671,1.848-14.821.988-10.76.939-19.316-.142-24.744l.981-.2a60.943,60.943,0,0,1,.869,11.962c-.031,3.866-.27,8.265-.713,13.076C248.89,319.721,247.8,326.356,247.785,326.422Z" fill="#9fafc9"/><path d="M257.4,340.662l-.972-.233c.017-.069,1.677-7.015,3.127-15.31,1.913-10.946,2.592-19.259,1.965-24.038l.992-.13a53.105,53.105,0,0,1-.141,11.272c-.36,3.782-.976,8.18-1.831,13.073C259.084,333.621,257.417,340.592,257.4,340.662Z" fill="#9fafc9"/><path d="M261.284,348.409c-9.264-2.191-29.153-.337-29.353-.318l-.095-1c.05,0,5.1-.48,11.245-.676,8.269-.263,14.47.079,18.433,1.016Z" fill="#9fafc9"/><path d="M215.682,293.812a90.333,90.333,0,0,0-9.777-1.56,104.147,104.147,0,0,0-22.64-.089l-.113-.994a105.172,105.172,0,0,1,22.881.091,91.264,91.264,0,0,1,9.88,1.579Z" fill="#9fafc9"/><path d="M468.132,415.327l-.888-.46a566.607,566.607,0,0,1,63.936-97.39l.8-.978c4.712-5.766,9.585-11.728,12.316-18.673,2.508-6.38,3.406-15.594-1.591-22.324-3.652-4.918-10.166-7.907-17.425-8-7.452-.092-14.611,2.729-19.348,4.859-11.138,5.009-20.236,11.478-27.042,19.227-11.025,12.552-17.734,30.34-20.509,54.381-.889,7.706-1.384,15.594-1.863,23.223-.741,11.811-1.508,24.025-3.755,35.855l-.982-.187c2.236-11.769,3-23.95,3.74-35.731.48-7.641.975-15.543,1.868-23.275a136.479,136.479,0,0,1,6.295-29.229,87.1,87.1,0,0,1,5.983-13.564,68.884,68.884,0,0,1,8.474-12.134c6.9-7.857,16.115-14.411,27.384-19.479a65.347,65.347,0,0,1,9.63-3.552,36.584,36.584,0,0,1,10.14-1.4,26.26,26.26,0,0,1,10.13,2.133,20,20,0,0,1,8.085,6.268,18.642,18.642,0,0,1,2.744,5.361A22.556,22.556,0,0,1,547.3,286.2a29.377,29.377,0,0,1-2.078,11.99c-2.788,7.091-7.711,13.115-12.472,18.94l-.8.977A565.6,565.6,0,0,0,468.132,415.327Z" fill="#9fafc9"/><path d="M461.272,410.135l-.992-.13a158.058,158.058,0,0,1,4.226-20c1.926-7.152,4.322-14.818,7.121-22.788,5.446-15.5,11.771-30.2,16.919-39.324a264.479,264.479,0,0,1,21.286-31.227c4.338-5.528,8.679-10.664,12.9-15.265a147.734,147.734,0,0,1,12.7-12.435l.649.761c-16.339,13.921-36.558,40.756-46.665,58.657C479.129,346.613,464.28,387.141,461.272,410.135Z" fill="#9fafc9"/><path d="M489.663,327.721l-.343-.939a96.359,96.359,0,0,1,14.458-3.98,118.471,118.471,0,0,1,12.7-1.771,102.309,102.309,0,0,1,12.48-.38l-.051,1a101.349,101.349,0,0,0-12.363.379A106.9,106.9,0,0,0,489.663,327.721Z" fill="#9fafc9"/><path d="M505.047,302.762c-.015-.046-1.49-4.692-2.8-10.491-1.766-7.811-2.409-13.886-1.913-18.055l.993.118c-.476,4,.179,10.124,1.9,17.716,1.3,5.756,2.764,10.361,2.779,10.407Z" fill="#9fafc9"/><path d="M486.526,331.979c-.022-.066-2.271-6.7-4.431-14.982-1.27-4.869-2.262-9.349-2.948-13.316a63.459,63.459,0,0,1-1.134-12.436l1,.033c-.191,5.764,1.209,14.568,4.049,25.46,2.151,8.25,4.389,14.854,4.412,14.919Z" fill="#9fafc9"/><path d="M482.752,339.792c-.027-.067-2.775-6.835-5.536-15.032-1.623-4.817-2.933-9.18-3.9-12.967a57.169,57.169,0,0,1-1.962-11.48l1-.033c.165,5.023,2.173,13.378,5.805,24.161,2.751,8.167,5.487,14.907,5.514,14.974Z" fill="#9fafc9"/><path d="M476.352,356.85l-.385-.923c3.912-1.634,10.225-3.036,18.765-4.167,6.344-.84,11.617-1.208,11.669-1.212l.069,1c-.052,0-5.3.37-11.612,1.206C486.526,353.856,480.127,355.273,476.352,356.85Z" fill="#9fafc9"/><path d="M510.8,296.937,510.46,296c.055-.02,5.532-1.981,12.73-3.956,6.653-1.826,16.183-4.038,23.8-4.209l.022,1c-7.516.169-16.957,2.362-23.553,4.172C516.3,294.967,510.852,296.917,510.8,296.937Z" fill="#9fafc9"/><path d="M516.114,289.308c-.907-2.8-1.235-7.237-.975-13.176.193-4.4.655-8.038.659-8.074l.992.127c-.018.143-1.808,14.374.275,20.816Z" fill="#9fafc9"/><path d="M503.183,306.974l-.243-.97c.066-.016,6.649-1.658,14.914-3.207,7.639-1.433,18.322-3.079,25.831-2.783l-.039,1c-7.416-.292-18.019,1.344-25.608,2.767C509.8,305.324,503.249,306.958,503.183,306.974Z" fill="#9fafc9"/><path d="M434.373,305.382l-.949-.317A680.779,680.779,0,0,1,491.192,177.55l.777-1.329c4.52-7.724,9.194-15.711,11.145-24.474,1.8-8.068,1.142-19.214-6.074-26.3-5.274-5.18-13.6-7.527-22.262-6.278-8.885,1.281-16.871,5.971-22.106,9.387-11.528,7.522-22.7,24.367-29.888,45.06-7.755,22.326-15.135,82.516-8.586,122.36l-.987.162a220.024,220.024,0,0,1-2.556-33.093c-.108-11.131.377-22.92,1.443-35.04,1.938-22.032,5.67-43,9.741-54.717a136.623,136.623,0,0,1,6.277-15.143,110.269,110.269,0,0,1,7.381-12.9c5.2-7.758,10.949-13.817,16.627-17.522a78.4,78.4,0,0,1,10.758-6,43.89,43.89,0,0,1,11.752-3.537,31.459,31.459,0,0,1,12.385.644,25.857,25.857,0,0,1,5.747,2.254,21.79,21.79,0,0,1,9.211,9.484,27.007,27.007,0,0,1,2.347,6.825,35.2,35.2,0,0,1-.234,14.581c-1.985,8.915-6.7,16.971-11.258,24.762l-.776,1.328A679.777,679.777,0,0,0,434.373,305.382Z" fill="#9fafc9"/><path d="M424.257,300.556a189.827,189.827,0,0,1,1.293-24.516c.955-8.847,2.371-18.394,4.21-28.374,3.578-19.417,8.348-38.042,12.761-49.822a317.669,317.669,0,0,1,19.451-41.026c4.119-7.369,8.316-14.272,12.473-20.519A177.432,177.432,0,0,1,487.2,119.18l.759.652c-16.816,19.58-35.831,55.219-44.5,78.363-8.826,23.562-18.913,74.464-18.2,102.336Z" fill="#9fafc9"/><path d="M432.177,236.569c-.038-.04-3.859-4.011-7.966-9.212a90.6,90.6,0,0,1-6.068-8.563,33.7,33.7,0,0,1-4.019-8.643l.967-.254c1.107,4.213,4.532,10.036,9.9,16.841,4.076,5.162,7.863,9.1,7.9,9.137Z" fill="#9fafc9"/><path d="M447.034,187.21a98.979,98.979,0,0,1-5.325-13.631c-1.31-4.144-2.528-8.68-3.618-13.482-1.857-8.174-2.715-14.375-2.723-14.437l.991-.136c.008.061.862,6.227,2.71,14.361,1.7,7.5,4.623,18.245,8.864,26.885Z" fill="#9fafc9"/><path d="M455.434,169.452c-1.836-4.359-3.46-12.3-4.827-23.59-1.016-8.392-1.5-15.6-1.506-15.677l1-.066c0,.072.489,7.262,1.5,15.628,1.336,11.042,2.981,19.1,4.755,23.317Z" fill="#9fafc9"/><path d="M468.621,145.657c-.659-5.052-.219-11.919.266-16.791.524-5.266,1.213-9.4,1.22-9.443l.986.165c-.027.163-2.72,16.436-1.48,25.939Z" fill="#9fafc9"/><path d="M461.643,159l-.073-1c.053,0,5.425-.4,13.288-1.682a180.752,180.752,0,0,0,28.987-7.092l.326.945a181.777,181.777,0,0,1-29.165,7.136C467.1,158.6,461.7,159,461.643,159Z" fill="#9fafc9"/><path d="M473.891,138.691l-.2-.98c.109-.022,11.042-2.271,26.831-8.855l.385.923C485.021,136.4,474,138.669,473.891,138.691Z" fill="#9fafc9"/><path d="M429.621,253.265l-.543-.84c.035-.023,3.6-2.323,9.176-5.316a160.813,160.813,0,0,1,21.813-9.777l.333.943a159.786,159.786,0,0,0-21.663,9.71C433.2,250.96,429.656,253.242,429.621,253.265Z" fill="#9fafc9"/><path d="M351.721,378.149s8.883,3.245,8.944,5.871c.035,1.505-12.887,1.464-13.692.467-1.288-1.6.95-6.007.95-6.007Z"/><path d="M351.528,370.814l.2,7.561a1.908,1.908,0,0,1-1.59,1.4c-1.311.172-2.214-1.3-2.214-1.3l-.387-9.46" fill="#ffdacf"/><path d="M366.627,202.5s6.478,20.435,4.048,76.758c-1.66,38.468-17.523,93.888-19.426,93.94a24.815,24.815,0,0,1-3.608-.183s-7.558-55.74-8.383-87.135c-1.27-48.338-18.577-59.426-13.05-84.547" fill="#5481db"/><path d="M352.5,370.131l-.356,3.331-5.308.146-.251-3.314Z" fill="#75a1e9"/><path d="M319.681,378.9s8.883,3.245,8.944,5.871c.035,1.505-12.887,1.465-13.692.467-1.288-1.6.949-6.007.949-6.007Z"/><path d="M319.488,371.567l.2,7.561a1.906,1.906,0,0,1-1.589,1.4c-1.311.172-2.215-1.3-2.215-1.3l-.386-9.46" fill="#ffdacf"/><path d="M341.932,202.93s-.326,48.24-5.146,86.193c-2.149,16.928-15.55,82.454-16.929,84.81l-4.835.133s-6.634-61.606-7.459-93c-1.269-48.338-7.278-54.18-1.751-79.3" fill="#5481db"/><path d="M320.583,370.88l-.356,3.331-5.308.146-.251-3.314Z" fill="#75a1e9"/><path d="M339.376,269.544l-1-.038c1.112-29.026,1.875-47.524,1.883-47.708l1,.041C341.251,222.023,340.488,240.52,339.376,269.544Z" fill="#4a578e"/><path d="M403.291,99l2.33-4.394a13.045,13.045,0,0,1-.576-3.832c0-.953.416-3.474.921-3.682s.737,2.128.953,2.039,1.833-4.683,2.744-4.618c.461.032-1.121,4.484-1.121,4.484s1.559-4.832,2.279-4.665-.994,4.778-.994,4.778,1.5-4.379,2.111-4.238-.971,4.41-.971,4.41,1.493-3.8,1.825-3.582c.651.422-.154,2.614-.3,3.115-.367,1.291-1.27,5.646-3.385,6.774a33.814,33.814,0,0,0-.812,3.671" fill="#ffdacf"/><path d="M407.057,89.683c.274.35.526.714.779,1.079a4.349,4.349,0,0,1,.6,1.137,3.654,3.654,0,0,1-.364,2.52c-.066.168.18.239.271.114a2.987,2.987,0,0,0,.534-2.715,6.507,6.507,0,0,0-1.634-2.318c-.117-.123-.281.056-.182.183Z" fill="#f7a794"/><path d="M377.848,144.518c5.548-2.9,11.748-7.052,14.849-10.919,13.582-16.942,16.227-37.32,16.227-37.32l-3.5-2.323s-14.6,18.574-20.5,24.263c-2.619,2.524-7.575,4.786-12.817,8" fill="#ffdacf"/><path d="M372.91,125.115c-10.752,2.691-23.8,7.164-29.344,10.111l-8.465.339c-4.1.833-16.983,6.327-19.706,9.606-7.351,8.851-9.583,35.47-11.971,61.641,20.792,6.529,49.347,8.44,64.789.484-.155-9.383-4.07-17.4-4.674-27.3-.626-10.259,1.638-16.775-2.054-26.524,2.837-1.78,10.672-5.014,18.213-8.95Z" fill="#6196a6"/><path d="M369.094,125.9l6.834,20.908,5.02-2.291-6.81-19.988Z" fill="#fff"/><path d="M332.323,100.578c-5.427,2.8-8.17,8.63-7.855,14.748.341,6.642,4.361,12.922,12.913,12.456a23.107,23.107,0,0,0,3.36-.305A16.183,16.183,0,0,0,346,125.571a12.651,12.651,0,0,0,5.33-7.288,18.951,18.951,0,0,0,.157-9.131,9.827,9.827,0,0,0-2.01-4.6,12.663,12.663,0,0,1-1.709-1.931A4.579,4.579,0,0,0,346.292,101,9.651,9.651,0,0,0,342,99.462C338.926,99.061,335.074,99.159,332.323,100.578Z"/><path d="M354.666,118.263a4.872,4.872,0,0,1-4.049,5.526,4.818,4.818,0,0,1-5.073-4.556,4.871,4.871,0,0,1,4.048-5.525A4.817,4.817,0,0,1,354.666,118.263Z" fill="#ff8080"/><path d="M352.5,118.706a3.28,3.28,0,0,1-2.63,3.772,3.243,3.243,0,0,1-3.332-3.138,3.28,3.28,0,0,1,2.63-3.772A3.244,3.244,0,0,1,352.5,118.706Z" fill="#ffb0b0"/><path d="M343.566,135.226l-.31-10.922-6.2.668-2.111,11.077s1.7,1.881,5.27,1.388C343.308,137.011,343.566,135.226,343.566,135.226Z" fill="#ffdacf"/><path d="M335.49,133.213c.962,1.727,4.73,4.224,4.73,4.224l-3.579,3.959-3.428-6.272Z" fill="#fff"/><path d="M343.517,133.477c-.694,2.193-3.3,3.96-3.3,3.96l2.415,3.012,2.476-5.876Z" fill="#fff"/><path d="M333.24,119.84c-.249-4.282,1.018-8.88,3.279-11.4s6.478-2.878,9.59-2.454a5.832,5.832,0,0,1,2.962,1.2c3.071,2.554,2.867,8.438,2.652,12.044a14.942,14.942,0,0,1-3,8.516,5.836,5.836,0,0,1-2.2,1.8,10.346,10.346,0,0,1-9.639-1.434C334.438,126.166,333.417,122.9,333.24,119.84Z" fill="#ffdacf"/><path d="M331.861,123.289c-1.137.533-2.9.917-3.789-.333-.706-1-.091-2.5.157-3.558a94.937,94.937,0,0,1,2.987-10.182,19.1,19.1,0,0,1,2.353-4.919c2.094-2.883,8.045-4.221,11.542-3.889,3.845-.255,9.969,6.008,6.618,13.294a9.563,9.563,0,0,0-2.517-4.172c-1.267,1.268-4.366,4.056-12.5,4.056-1.747,1.669-.395,5.05-1.659,7.125A7.148,7.148,0,0,1,331.861,123.289Z"/><path d="M335.836,120.569a1.38,1.38,0,0,0-1.137-1.7c-1.769-.187-2.3,2.589-1.61,3.852.509.936,1.793,1.708,2.457.58" fill="#fc8975"/><path d="M338.8,127.08a8.511,8.511,0,0,1-1.3-.213,5.677,5.677,0,0,1-3.313-2.167,2.54,2.54,0,0,1-.53-1.388.2.2,0,1,1,.4-.014,2.151,2.151,0,0,0,.455,1.163,5.279,5.279,0,0,0,3.083,2.008,12.578,12.578,0,0,0,3.7.205.2.2,0,0,1,.021.409A17.281,17.281,0,0,1,338.8,127.08Z" fill="#081466"/><path d="M342.213,126.365a1.455,1.455,0,0,0-1.128-.061c-1.273.413.107,2.068,1.258,1.217a.79.79,0,0,0,.232-.254A.711.711,0,0,0,342.213,126.365Z" fill="#081466"/><path d="M332.049,115.306c.295-2.836,1.278-7.524,3.02-9.751,2.241-2.863,5.5-5.48,8.37-5.48a2.743,2.743,0,0,1,1.672.333,15.442,15.442,0,0,0-7.838,4.638c-2.342,2.477-3.661,7.309-3.725,10.754" fill="#ff8080"/><path d="M337.357,119.158a4.43,4.43,0,0,1-3.682,5.025,4.381,4.381,0,0,1-4.614-4.142,4.43,4.43,0,0,1,3.682-5.025A4.381,4.381,0,0,1,337.357,119.158Z" fill="#ff8080"/><path d="M335.389,119.561A2.984,2.984,0,0,1,333,122.992a2.951,2.951,0,0,1-3.031-2.854,2.984,2.984,0,0,1,2.391-3.431A2.951,2.951,0,0,1,335.389,119.561Z" fill="#ffb0b0"/><path d="M331.446,102.815a2.711,2.711,0,0,0,0-2.187,7.475,7.475,0,0,0-7.209-4.857,7.79,7.79,0,0,0-6.894,5.377,4.358,4.358,0,0,0-.169,2.238,3.956,3.956,0,0,0,2.278,2.558,9.59,9.59,0,0,0,3.455.708,10.033,10.033,0,0,0,4.747-.586,4.208,4.208,0,0,0,2.643-3.711"/><path d="M319,102.93a3.06,3.06,0,0,1,.114,3.439,4.076,4.076,0,0,1-3.054,1.794,6.179,6.179,0,0,1-3.522-.808,3.66,3.66,0,0,1-2.124-2.665c-.289-3.518,3.828-7.838,8.282-4.182"/><path d="M312.749,105.443c.161.7-.358,2-.432,2.709a2.909,2.909,0,0,1-.9,1.894,4.1,4.1,0,0,1-2.814.728,5.79,5.79,0,0,1-2.231-.377,3.374,3.374,0,0,1-1.461-4.959c1.7-2.559,6.315-2.944,7.835,0"/><path d="M305.992,109.714c.467,1.621-.766,3.19-1.205,4.819-.549,2.036.166,4.177.22,6.285a.3.3,0,0,1-.309.394,10.079,10.079,0,0,1-6.165-.92,5.53,5.53,0,0,1-2.963-5.194,6.879,6.879,0,0,1,1.539-3.3,9.563,9.563,0,0,1,4.291-3.343,5.466,5.466,0,0,1,5.223.755"/><path d="M2.7,8.225-.465.183l.93-.367L3.634,7.859Z" transform="translate(358.316 145.426)" fill="#5481db"/><path d="M346.338,122.5a8.562,8.562,0,0,1-.88-.047l.106-.994a4.387,4.387,0,0,0,1.92-.128,21.571,21.571,0,0,0-1.205-3.954l.935-.356c.317.834,1.345,3.618,1.264,4.454a.891.891,0,0,1-.338.612A3.1,3.1,0,0,1,346.338,122.5Z" fill="#f7a794"/><path d="M341.81,117.691c.069.615-.2,1.15-.6,1.195s-.781-.417-.851-1.032.2-1.149.6-1.194S341.74,117.077,341.81,117.691Z"/><path d="M350.133,117.617c.069.614-.2,1.149-.6,1.194s-.781-.417-.85-1.032.2-1.149.6-1.194S350.064,117,350.133,117.617Z"/><path d="M342.82,124.782l4.7-.423s.026,3.013-2.107,3.079A2.366,2.366,0,0,1,342.82,124.782Z" fill="#fff"/><path d="M348.353,114.4a.426.426,0,0,1,.3-.178,1.827,1.827,0,0,1,2.1,1.264"/><path d="M342.176,114.453a.446.446,0,0,0-.308-.205,2.352,2.352,0,0,0-2.61,1.1"/><path d="M234.5,61.636a28.635,28.635,0,0,1,41.349,35.756l6.548,5.808-9.569-.474A28.644,28.644,0,1,1,234.5,61.636Z" fill="#fff"/><path d="M249.556,56.837a29.182,29.182,0,0,1,27.827,20.38,28.946,28.946,0,0,1,1.283,6.887,29.438,29.438,0,0,1-2.219,13.152l6.279,5.569a.5.5,0,0,1-.357.873l-9.3-.461a29.146,29.146,0,0,1-23.461,11.9,29.125,29.125,0,0,1-24.8-13.8,29.152,29.152,0,0,1,24.75-44.5ZM281,102.63l-5.484-4.864a.5.5,0,0,1-.127-.573,28.017,28.017,0,1,0-2.968,5.241.5.5,0,0,1,.431-.207Z" fill="#bfd7fa"/><path d="M261.911,96.84l-24.827-.346-2.743-17.848,30,.01Z" fill="#bfd7fa"/><path d="M264.346,78.656l-30-.01,15.006-12.33Z" fill="#bfd7fa"/><rect width="20.477" height="17.297" transform="translate(238.883 76.889)" fill="#fff"/><path d="M234.341,78.646l-.006,19.507,15.005-9.06Z" fill="#e0edfc"/><path d="M264.346,78.656l-.006,19.507-15-9.07Z" fill="#e0edfc"/><path d="M264.34,98.163l-30-.01,15.007-12.33Z" fill="#e0edfc"/><path d="M264.181,98.356l-14.84-12.209-14.848,12.2-.317-.386L249.341,85.5,264.5,97.97Z" fill="#5481db"/><path d="M.143,9.145l-.286-.41L12.709-.205l.286.41Z" transform="translate(251.494 78.656)" fill="#5481db"/><path d="M12.7,9.154-.143.205l.286-.41L12.991,8.744Z" transform="translate(234.341 78.646)" fill="#5481db"/><path d="M522.474,370.573a5.689,5.689,0,0,1,3.374,2.866,8.672,8.672,0,0,1,1.287,4.656,2.785,2.785,0,0,0,1.411-1.279,7.425,7.425,0,0,0,1.49-4.349c-.123-1.725-1.668-3.712-2.9-4.878-.656-.623-1.265-.364-2.243-.125" fill="#393686"/><path d="M527.115,367.548c-.579-1.234-2.68-1.854-4.324-1.665-4.777,1.368-7.5,10.134-6.2,13.465a3.634,3.634,0,0,0,3.34,1.162,7.385,7.385,0,0,0,2.546-.681.519.519,0,0,0,.328-.6C522.245,377.23,522.122,371.987,527.115,367.548Z" fill="#393686"/><path d="M530.858,373.792a5.7,5.7,0,0,1,3.375,2.867,8.671,8.671,0,0,1,1.287,4.656,2.783,2.783,0,0,0,1.41-1.279,7.419,7.419,0,0,0,1.491-4.349c-.123-1.725-1.668-3.712-2.9-4.878-.656-.623-1.266-.365-2.244-.125" fill="#393686"/><path d="M535.5,370.768c-.579-1.234-2.68-1.855-4.324-1.665-4.777,1.368-7.5,10.134-6.2,13.464a3.631,3.631,0,0,0,3.34,1.162,7.351,7.351,0,0,0,2.545-.681.519.519,0,0,0,.329-.594C530.63,380.449,530.506,375.206,535.5,370.768Z" fill="#393686"/><path d="M540.6,375.614a5.7,5.7,0,0,1,3.375,2.867,8.68,8.68,0,0,1,1.287,4.656,2.787,2.787,0,0,0,1.41-1.279,7.418,7.418,0,0,0,1.49-4.349c-.122-1.725-1.668-3.712-2.9-4.878-.656-.623-1.266-.365-2.244-.125" fill="#393686"/><path d="M545.245,372.59c-.579-1.234-2.68-1.854-4.323-1.665-4.778,1.368-7.5,10.134-6.2,13.465a3.632,3.632,0,0,0,3.339,1.162,7.372,7.372,0,0,0,2.546-.681.518.518,0,0,0,.328-.6C540.376,382.272,540.252,377.029,545.245,372.59Z" fill="#393686"/><path d="M549.419,376.54a5.692,5.692,0,0,1,3.356,2.889,8.674,8.674,0,0,1,1.256,4.664,2.788,2.788,0,0,0,1.419-1.27,7.421,7.421,0,0,0,1.519-4.339c-.112-1.725-1.644-3.723-2.863-4.9-.652-.627-1.264-.373-2.243-.14" fill="#393686"/><path d="M554.08,373.546c-.571-1.238-2.667-1.872-4.312-1.694-4.786,1.337-7.567,10.084-6.291,13.424a3.634,3.634,0,0,0,3.332,1.184,7.364,7.364,0,0,0,2.55-.665.517.517,0,0,0,.332-.592C549.147,383.2,549.058,377.951,554.08,373.546Z" fill="#393686"/><path d="M557.859,379.057a5.69,5.69,0,0,1,3.207,3.053,8.674,8.674,0,0,1,1.022,4.721,2.786,2.786,0,0,0,1.481-1.2,7.422,7.422,0,0,0,1.733-4.257c-.025-1.729-1.456-3.8-2.615-5.034-.62-.659-1.243-.436-2.233-.252" fill="#393686"/><path d="M562.664,376.3c-.509-1.265-2.571-2-4.223-1.907-4.847,1.1-8.06,9.694-6.952,13.093a3.633,3.633,0,0,0,3.268,1.349,7.364,7.364,0,0,0,2.58-.537.517.517,0,0,0,.361-.575C557.255,385.691,557.428,380.449,562.664,376.3Z" fill="#393686"/><path d="M566.836,383.991a5.688,5.688,0,0,1,1.956,3.971,8.669,8.669,0,0,1-.669,4.784,2.776,2.776,0,0,0,1.8-.613,7.417,7.417,0,0,0,3.1-3.4c.573-1.631-.055-4.069-.718-5.626-.354-.833-1.017-.839-2.009-1.008" fill="#393686"/><path d="M572.3,383.06c-.041-1.362-1.722-2.767-3.306-3.246-4.927-.644-10.91,6.317-11.043,9.889a3.63,3.63,0,0,0,2.6,2.394,7.368,7.368,0,0,0,2.607.387.519.519,0,0,0,.538-.415C563.979,390.008,565.95,385.148,572.3,383.06Z" fill="#393686"/><path d="M575.723,388.549a5.692,5.692,0,0,1,1.957,3.972,8.667,8.667,0,0,1-.67,4.783,2.783,2.783,0,0,0,1.8-.612,7.425,7.425,0,0,0,3.1-3.4c.573-1.632-.055-4.069-.718-5.627-.354-.833-1.016-.838-2.009-1.008" fill="#393686"/><path d="M581.184,387.619c-.041-1.363-1.722-2.767-3.3-3.247-4.928-.644-10.911,6.317-11.043,9.89a3.632,3.632,0,0,0,2.6,2.394,7.34,7.34,0,0,0,2.607.386.517.517,0,0,0,.537-.414C572.867,394.567,574.838,389.707,581.184,387.619Z" fill="#393686"/><path d="M585.385,393.867a5.431,5.431,0,0,1,1.027,4.233,8.989,8.989,0,0,1-1.73,4.573,2.872,2.872,0,0,0,1.9-.288,7.99,7.99,0,0,0,3.8-2.793c.928-1.5.859-4,.559-5.641-.161-.878-.809-1-1.744-1.336" fill="#393686"/><path d="M590.948,393.9c.265-1.343-1.067-3.012-2.512-3.757-4.686-1.486-12.114,4.3-13.046,7.779a3.392,3.392,0,0,0,2.014,2.8,7.137,7.137,0,0,0,2.469.832.55.55,0,0,0,.62-.314C581.235,399.27,584.258,394.848,590.948,393.9Z" fill="#393686"/><path d="M590.755,402.612a5.409,5.409,0,0,1-.86,4.262,10.221,10.221,0,0,1-3.561,3.664,2.863,2.863,0,0,0,1.888.364,8.925,8.925,0,0,0,4.714-1.332,7.683,7.683,0,0,0,2.933-5.04c.158-.879-.322-1.193-1.044-1.815" fill="#393686"/><path d="M595.893,404.486c.821-1.156.3-3.143-.719-4.312-3.706-2.928-13.063-.026-15.416,2.889a3.084,3.084,0,0,0,.668,3.259,6.307,6.307,0,0,0,1.932,1.588.589.589,0,0,0,.708-.085A14.33,14.33,0,0,1,595.893,404.486Z" fill="#393686"/><path d="M592.691,409.965a5.94,5.94,0,0,1-2.546,3.7,11.631,11.631,0,0,1-4.821,2.293,2.616,2.616,0,0,0,1.613.937,9.216,9.216,0,0,0,4.943.249,8.837,8.837,0,0,0,5.114-4.245c.566-.737-.129-.745-.547-1.554" fill="#393686"/><path d="M596.994,412.9c.97-1.063.717-3.091-.139-4.356-3.29-3.29-12.97-1.372-15.7,1.28a3.052,3.052,0,0,0,.229,3.306,6.022,6.022,0,0,0,1.707,1.775.591.591,0,0,0,.715-.011A14.607,14.607,0,0,1,596.994,412.9Z" fill="#393686"/><path d="M590.426,417.488a6.662,6.662,0,0,1-3.728,2.827,12.437,12.437,0,0,1-5.392.863,2.333,2.333,0,0,0,1.2,1.33,8.8,8.8,0,0,0,4.611,1.587,9.769,9.769,0,0,0,6.36-2.639c.8-.546.141-.744.029-1.627" fill="#393686"/><path d="M593.479,421.456c1.3-.746,1.773-2.742,1.4-4.179-1.966-4.025-11.844-4.845-15.371-3.067a3.12,3.12,0,0,0-.948,3.2,5.377,5.377,0,0,0,.995,2.154.577.577,0,0,0,.684.184A14.75,14.75,0,0,1,593.479,421.456Z" fill="#393686"/><path d="M585.671,425.013a7.606,7.606,0,0,1-4.812.911,12.162,12.162,0,0,1-5.2-1.514,2.04,2.04,0,0,0,.331,1.675,7.486,7.486,0,0,0,3.183,3.335,10.346,10.346,0,0,0,7.021.362c1-.142.528-.593.911-1.416" fill="#393686"/><path d="M586.19,429.782a4.592,4.592,0,0,0,3.51-3.076c.466-4.362-7.759-9.243-11.822-9.168a3.629,3.629,0,0,0-2.579,2.414,5.1,5.1,0,0,0-.3,2.31.5.5,0,0,0,.5.449A13.3,13.3,0,0,1,586.19,429.782Z" fill="#393686"/><path d="M577.032,429.248a7.692,7.692,0,0,1-4.9-.385,11.179,11.179,0,0,1-4.459-2.8,2.029,2.029,0,0,0-.249,1.686,6.752,6.752,0,0,0,1.916,4.015,9.925,9.925,0,0,0,6.582,2.178c1,.124.705-.43,1.348-1.116" fill="#393686"/><path d="M575.919,433.939a5.057,5.057,0,0,0,4.389-2.023c1.917-4.044-4.292-10.85-8.2-11.839a4,4,0,0,0-3.276,1.633,5.428,5.428,0,0,0-1.066,2.127.462.462,0,0,0,.326.56A12,12,0,0,1,575.919,433.939Z" fill="#393686"/><path d="M565.749,431.748a7.286,7.286,0,0,1-4.478-1.8,9.858,9.858,0,0,1-3.147-3.946,2.187,2.187,0,0,0-.872,1.517,6.353,6.353,0,0,0,.29,4.346,8.964,8.964,0,0,0,5.385,3.978c.9.409.827-.2,1.693-.658" fill="#393686"/><path d="M562.927,435.847c1.314.723,3.574.269,4.9-.626,3.335-3.253.051-11.487-3.259-13.561a4.3,4.3,0,0,0-3.708.582,6.131,6.131,0,0,0-1.808,1.7.432.432,0,0,0,.095.623A10.841,10.841,0,0,1,562.927,435.847Z" fill="#393686"/><path d="M555.023,433.024a6.5,6.5,0,0,1-3.5-3.047,8.873,8.873,0,0,1-1.4-4.66,2.483,2.483,0,0,0-1.414,1.158,6.574,6.574,0,0,0-1.437,4.167,7.9,7.9,0,0,0,3.489,5.37c.681.657.854.064,1.847-.1" fill="#393686"/><path d="M550.764,436.012c.948,1.078,3.248,1.339,4.848.9,4.409-2.039,4.565-10.764,2.274-13.716a4.29,4.29,0,0,0-3.708-.581,6.937,6.937,0,0,0-2.364,1.041.438.438,0,0,0-.155.614A10.443,10.443,0,0,1,550.764,436.012Z" fill="#393686"/><path d="M546.819,433.024a6.5,6.5,0,0,1-3.5-3.047,8.873,8.873,0,0,1-1.4-4.66,2.483,2.483,0,0,0-1.414,1.158,6.574,6.574,0,0,0-1.437,4.167,7.9,7.9,0,0,0,3.49,5.37c.681.657.854.064,1.846-.1" fill="#393686"/><path d="M542.56,436.012c.947,1.078,3.247,1.339,4.847.9,4.409-2.039,4.565-10.764,2.274-13.716a4.29,4.29,0,0,0-3.708-.581,6.923,6.923,0,0,0-2.363,1.041.438.438,0,0,0-.156.614A10.445,10.445,0,0,1,542.56,436.012Z" fill="#393686"/><path d="M538.238,433.024a6.5,6.5,0,0,1-3.5-3.047,8.865,8.865,0,0,1-1.4-4.66,2.483,2.483,0,0,0-1.414,1.158,6.573,6.573,0,0,0-1.437,4.167,7.9,7.9,0,0,0,3.49,5.37c.681.657.854.064,1.846-.1" fill="#393686"/><path d="M533.979,436.012c.947,1.078,3.247,1.339,4.847.9,4.409-2.039,4.565-10.764,2.274-13.716a4.288,4.288,0,0,0-3.707-.581,6.92,6.92,0,0,0-2.364,1.041.437.437,0,0,0-.155.614A10.447,10.447,0,0,1,533.979,436.012Z" fill="#393686"/><path d="M529.657,433.024a6.5,6.5,0,0,1-3.5-3.047,8.854,8.854,0,0,1-1.4-4.66,2.477,2.477,0,0,0-1.414,1.158,6.569,6.569,0,0,0-1.438,4.167,7.9,7.9,0,0,0,3.49,5.37c.681.657.854.064,1.847-.1" fill="#393686"/><path d="M525.4,436.012c.948,1.078,3.247,1.339,4.848.9,4.409-2.039,4.564-10.764,2.273-13.716a4.288,4.288,0,0,0-3.707-.581,6.92,6.92,0,0,0-2.364,1.041.437.437,0,0,0-.155.614A10.447,10.447,0,0,1,525.4,436.012Z" fill="#393686"/><path d="M324.3,303.461a5.406,5.406,0,0,1-4.289.716,10.213,10.213,0,0,1-4.693-2.019,2.858,2.858,0,0,0,.334,1.894,8.932,8.932,0,0,0,2.925,3.929,7.685,7.685,0,0,0,5.755.942c.877-.165,1-.726,1.324-1.623" fill="#393686"/><path d="M324.379,308.93c1.373.354,3.044-.841,3.772-2.21,1.414-4.506-4.635-12.213-8.2-13.371a3.081,3.081,0,0,0-2.806,1.786,6.279,6.279,0,0,0-.8,2.371.589.589,0,0,0,.332.631A14.333,14.333,0,0,1,324.379,308.93Z" fill="#393686"/><path d="M318.119,307.892a5.938,5.938,0,0,1-4.369-1.057,11.628,11.628,0,0,1-3.862-3.686,2.617,2.617,0,0,0-.3,1.841,9.207,9.207,0,0,0,1.53,4.707,8.845,8.845,0,0,0,5.79,3.264c.89.266.65-.387,1.257-1.066" fill="#393686"/><path d="M316.909,312.961c1.339.526,3.143-.433,4.02-1.685,1.9-4.246-3.345-12.606-6.794-14.2a3.052,3.052,0,0,0-3.007,1.393,6.031,6.031,0,0,0-1.05,2.228.591.591,0,0,0,.266.663A14.614,14.614,0,0,1,316.909,312.961Z" fill="#393686"/><path d="M310.283,308.46a6.66,6.66,0,0,1-3.971-2.475,12.456,12.456,0,0,1-2.73-4.73,2.344,2.344,0,0,0-.814,1.6,8.816,8.816,0,0,0,.163,4.874,9.774,9.774,0,0,0,4.734,5c.794.551.745-.134,1.53-.554" fill="#393686"/><path d="M307.665,312.728c1.16.945,3.194.678,4.4-.179,3.059-3.272.3-12.793-2.617-15.453a3.121,3.121,0,0,0-3.332.256,5.4,5.4,0,0,0-1.657,1.7.578.578,0,0,0,.071.705A14.745,14.745,0,0,1,307.665,312.728Z" fill="#393686"/><path d="M301.556,306.7a7.609,7.609,0,0,1-2.567-4.17,12.171,12.171,0,0,1-.441-5.4,2.038,2.038,0,0,0-1.447.907,7.481,7.481,0,0,0-1.98,4.163,10.344,10.344,0,0,0,2.165,6.688c.489.882.743.282,1.648.346" fill="#393686"/><path d="M297.286,308.887a4.594,4.594,0,0,0,4.126,2.182c4.241-1.12,5.867-10.545,4.348-14.314a3.623,3.623,0,0,0-3.174-1.548,5.094,5.094,0,0,0-2.265.544.505.505,0,0,0-.242.627A13.3,13.3,0,0,1,297.286,308.887Z" fill="#393686"/><path d="M294.518,300.141a7.7,7.7,0,0,1-1.388-4.718,11.17,11.17,0,0,1,1.028-5.165,2.022,2.022,0,0,0-1.663.369,6.741,6.741,0,0,0-3.068,3.221,9.922,9.922,0,0,0,.313,6.926c.241.98.652.506,1.522.862" fill="#393686"/><path d="M289.74,300.774a5.055,5.055,0,0,0,3.455,3.379c4.461.349,8.606-7.879,8.136-11.881a4,4,0,0,0-2.694-2.479,5.44,5.44,0,0,0-2.367-.236.461.461,0,0,0-.407.5A12,12,0,0,1,289.74,300.774Z" fill="#393686"/><path d="M287.028,291.154a7.279,7.279,0,0,1,.389-4.81,9.852,9.852,0,0,1,2.837-4.174,2.183,2.183,0,0,0-1.707-.383,6.348,6.348,0,0,0-4.066,1.564,8.96,8.96,0,0,0-2.2,6.322c-.125.978.435.73,1.13,1.421" fill="#393686"/><path d="M282.277,289.673c-.3,1.468.8,3.493,2.05,4.5,4.1,2.222,10.988-3.354,11.988-7.13a4.3,4.3,0,0,0-1.654-3.369,6.145,6.145,0,0,0-2.156-1.225.434.434,0,0,0-.567.276A10.84,10.84,0,0,1,282.277,289.673Z" fill="#393686"/><path d="M281.28,282.067a6.49,6.49,0,0,1,1.875-4.242,8.86,8.86,0,0,1,4.035-2.719,2.479,2.479,0,0,0-1.525-1.007,6.577,6.577,0,0,0-4.406-.139,7.9,7.9,0,0,0-4.094,4.924c-.426.845.19.835.645,1.733" fill="#393686"/><path d="M277.165,278.884c-.75,1.224-.318,3.5.572,4.9,3.253,3.607,11.632,1.171,13.773-1.892a4.288,4.288,0,0,0-.543-3.713,6.945,6.945,0,0,0-1.694-1.949.438.438,0,0,0-.633.034A10.444,10.444,0,0,1,277.165,278.884Z" fill="#393686"/><path d="M277.953,273.327a6.5,6.5,0,0,1,2.55-3.874,8.853,8.853,0,0,1,4.429-2.014,2.483,2.483,0,0,0-1.338-1.246,6.571,6.571,0,0,0-4.322-.864,7.9,7.9,0,0,0-4.852,4.179c-.56.763.051.855.35,1.817" fill="#393686"/><path d="M274.42,269.508c-.941,1.084-.891,3.4-.245,4.926,2.613,4.1,11.28,3.077,13.9.41a4.29,4.29,0,0,0,.078-3.752,6.94,6.94,0,0,0-1.35-2.2.437.437,0,0,0-.629-.071A10.442,10.442,0,0,1,274.42,269.508Z" fill="#393686"/><path d="M276.8,264.824a6.5,6.5,0,0,1,2.55-3.874,8.865,8.865,0,0,1,4.429-2.014,2.479,2.479,0,0,0-1.338-1.246,6.571,6.571,0,0,0-4.322-.864,7.9,7.9,0,0,0-4.852,4.179c-.559.763.051.855.35,1.817" fill="#393686"/><path d="M273.267,261.005c-.941,1.084-.891,3.4-.245,4.926,2.613,4.1,11.28,3.076,13.9.41a4.29,4.29,0,0,0,.078-3.752,6.94,6.94,0,0,0-1.349-2.2.438.438,0,0,0-.63-.071A10.444,10.444,0,0,1,273.267,261.005Z" fill="#393686"/><path d="M275.647,256.321a6.5,6.5,0,0,1,2.55-3.874,8.857,8.857,0,0,1,4.429-2.014,2.476,2.476,0,0,0-1.338-1.246,6.571,6.571,0,0,0-4.322-.864,7.9,7.9,0,0,0-4.852,4.179c-.559.763.051.855.35,1.816" fill="#393686"/><path d="M272.114,252.5c-.941,1.084-.891,3.4-.245,4.925,2.613,4.1,11.28,3.077,13.9.41a4.287,4.287,0,0,0,.078-3.751,6.92,6.92,0,0,0-1.349-2.2.438.438,0,0,0-.63-.071A10.442,10.442,0,0,1,272.114,252.5Z" fill="#393686"/><path d="M452.4,246.152V212.41H427.1v26.614H322.9V212.41H297.6v33.742c0,27.543-6.521,84.963-63.689,104.474a14.5,14.5,0,0,0-9.746,13.747v60.708A12.919,12.919,0,0,0,237.081,438H512.919a12.919,12.919,0,0,0,12.918-12.919V364.373a14.5,14.5,0,0,0-9.746-13.747C458.923,331.115,452.4,273.7,452.4,246.152Z" fill="#5f5d9c"/><path d="M373,371.121c-57.721,0-107.383-3.2-148.676-8.879a14.615,14.615,0,0,0-.161,2.131v60.708A12.919,12.919,0,0,0,237.081,438H512.919a12.919,12.919,0,0,0,12.918-12.919V364.373a14.659,14.659,0,0,0-.257-2.684C483.522,367.706,432.557,371.121,373,371.121Z" fill="#53509f" opacity="0.92"/><path d="M25.3,5.5H0v-11H25.3Z" transform="translate(297.598 213.725)" fill="#393686" opacity="0.75"/><path d="M25.3,5.5H0v-11H25.3Z" transform="translate(427.104 213.725)" fill="#393686" opacity="0.75"/><path d="M201.019,217.205v38.2h83.428V220.538a7.793,7.793,0,0,1,7.793-7.794H457.759a7.793,7.793,0,0,1,7.794,7.794V255.4h83.428v-38.2a56.872,56.872,0,0,0-56.871-56.872H257.89A56.872,56.872,0,0,0,201.019,217.205Z" fill="#53509e"/><rect width="88.279" height="35.45" rx="4.527" transform="translate(198.593 224.547)" fill="#393686"/><rect width="88.279" height="35.45" rx="4.527" transform="translate(463.128 224.547)" fill="#393686"/><path d="M224.163,419.4v5.685A12.919,12.919,0,0,0,237.081,438H512.919a12.919,12.919,0,0,0,12.918-12.919V419.4Z" fill="#393686"/><path d="M375,261.6a67.178,67.178,0,1,0,67.178,67.178A67.177,67.177,0,0,0,375,261.6Zm0,85.06a17.882,17.882,0,1,1,17.882-17.882A17.882,17.882,0,0,1,375,346.659Z" fill="#393686"/><path d="M375,253.645a67.178,67.178,0,1,0,67.178,67.178A67.177,67.177,0,0,0,375,253.645Zm0,85.059a17.882,17.882,0,1,1,17.882-17.881A17.881,17.881,0,0,1,375,338.7Z" fill="#fff"/><path d="M398.41,284.685a7.773,7.773,0,1,1-4.21-10.154A7.772,7.772,0,0,1,398.41,284.685Zm-19.888-6.763a7.772,7.772,0,1,1-8.5-6.971A7.771,7.771,0,0,1,378.522,277.922ZM357.8,281.331a7.772,7.772,0,1,1-10.781-2.143A7.773,7.773,0,0,1,357.8,281.331Zm-16.674,12.775A7.772,7.772,0,1,1,330.6,297.3,7.773,7.773,0,0,1,341.121,294.106Zm-8.686,19.126A7.773,7.773,0,1,1,324.662,321,7.774,7.774,0,0,1,332.435,313.232Zm1.354,20.962a7.773,7.773,0,1,1-3.193,10.518A7.773,7.773,0,0,1,333.789,334.194Zm11.074,17.85A7.772,7.772,0,1,1,347,362.825,7.772,7.772,0,0,1,344.863,352.044Zm18.179,10.524a7.772,7.772,0,1,1,6.97,8.5A7.772,7.772,0,0,1,363.042,362.568Zm20.994.714a7.773,7.773,0,1,1,10.153,4.212A7.772,7.772,0,0,1,384.036,363.282Zm18.852-9.265a7.772,7.772,0,1,1,10.94-1.07A7.771,7.771,0,0,1,402.888,354.017Z" fill="#53509e"/><path d="M324.784,322.338a7.773,7.773,0,1,1,15.3,0,7.764,7.764,0,0,0-15.3,0Zm77.034,23.407a7.766,7.766,0,0,1,13.657,3.607,7.769,7.769,0,1,0-15.3-.012A7.721,7.721,0,0,1,401.818,345.745Zm-57.511-8.357A7.771,7.771,0,0,0,329.8,342.4a7.766,7.766,0,0,1,15.3-.025A7.733,7.733,0,0,0,344.307,337.388ZM355.644,349.9a7.765,7.765,0,0,0-11.972,7.784,7.766,7.766,0,0,1,15.3.022A7.771,7.771,0,0,0,355.644,349.9ZM330.6,299.964a7.766,7.766,0,0,1,14.507,2.343,7.77,7.77,0,1,0-15.305-.025A7.748,7.748,0,0,1,330.6,299.964Zm63.6-25.433a7.762,7.762,0,0,0-10.624,8.506,7.857,7.857,0,0,1,.47-1.63,7.768,7.768,0,0,1,14.834,1.648A7.772,7.772,0,0,0,394.2,274.531Zm-5.952,78.6a7.773,7.773,0,0,0-4.682,8.526,7.764,7.764,0,0,1,15.3-.02,7.762,7.762,0,0,0-10.622-8.506Zm-16.706,2.47a7.751,7.751,0,0,0-8.415,9.073,7.764,7.764,0,0,1,15.3-.01c.032-.186.066-.372.084-.563A7.771,7.771,0,0,0,371.542,355.6Zm-1.518-84.648a7.771,7.771,0,0,0-6.971,8.5c.019.192.052.378.084.565a7.764,7.764,0,0,1,15.3.01,7.751,7.751,0,0,0-8.413-9.073Zm-23.01,8.237a7.768,7.768,0,0,0-3.333,7.806,7.766,7.766,0,0,1,15.3-.022,7.765,7.765,0,0,0-11.971-7.784Z" fill="#393686"/><path d="M442.178,313.478l-30.917-1.33s.013,1.412.013,2.057a1.539,1.539,0,0,0,.292,1.177,22.573,22.573,0,0,0,10.862,5.217,92.078,92.078,0,0,0,19.75,1.335Z" fill="#393686"/><path d="M442.178,311.81a.915.915,0,0,0-.915-.915H411.946c-.7,0-.976,1.359-.38,1.9a22.573,22.573,0,0,0,10.862,5.218,92.149,92.149,0,0,0,19.75,1.335Z" fill="#53509e"/><path d="M320.725,186.082s2.726,1.93,3.673,1.985,3.113-.65,5.8-.384c1.2.118,4.292.806,4.466,1.294s-2.8.415-2.727.625,5.564,2.254,5.325,3.081c-.121.419-5.438-1.577-5.438-1.577s5.8,2.022,5.464,2.661-5.828-1.5-5.828-1.5,5.239,1.915,4.955,2.456-5.4-.824-5.4-.824,4.457.974,4.216,1.505c-.125.276-5.013-.342-9.195-1.916a31.811,31.811,0,0,1-7.057-3.864" fill="#ffdacf"/><path d="M323.561,154.427c-3.994,6.086-13.237,13.113-18.342,17.421,2.93,3.974,19.513,16.354,19.513,16.354l-1.54,3.689s-31.6-5.669-32.609-21.276c-.6-9.337,11.218-23.092,20.393-29.557" fill="#ffdacf"/><path d="M316.662,136.726c-9.354,4.169-19.325,17.32-19.325,17.32l14.208,14.171,12.9-9.054,9.887-21.644-1.117-2.4A24.886,24.886,0,0,0,316.662,136.726Z" fill="#6196a6"/><path d="M296.193,154.735l14.073,15.37,5.117-3.856L300.17,150.6Z" fill="#fff"/><path d="M.269,3.866l-.537-.843L5.137-.422l.537.843Z" transform="translate(320.865 158.23)" fill="#5481db"/><path d="M504.933,270.221s-7.717,3.735-9.486,3.654-2.828-.88-5.647-1.639c-.761-.2-3.223-1.065-3.542-.28-.208.513,2.134,1.064,1.9,1.628s-5.526.128-5.9.853,4.992.661,4.992.661-5.616.307-5.774,1.006,5.571.287,5.571.287-5.349.556-5.184,1.191c.142.542,5.07.237,5.07.237s-4.247.649-3.942,1.3c.209.451,3.825-.07,5.375-.129,1.667-.064,3.22,1.443,6.931,0,.348-.065,10.229-.813,10.229-.813" fill="#ffdacf"/><path d="M492.553,277.205c-2.362,0-3.916-2.64-3.984-2.756l.865-.5c.014.024,1.419,2.4,3.29,2.251l.079,1Q492.677,277.205,492.553,277.205Z" fill="#f7a794"/><path d="M545.789,240.881c-5.728,7.655-9.814,13.275-13.164,15.635-5.721,4.03-37.178,17.359-37.178,17.359l-.151,5.114s36.55,1.393,55.786-8.408c4.143-2.111,14.25-10.219,14.25-10.219" fill="#ffdacf"/><path d="M597.1,210.475a39.063,39.063,0,0,0-35.168,10.342c-6.564,6.317-11.935,13.865-16.671,20.193l19.923,20.935c11.517-9.483,19.551-17.12,19.551-17.12" fill="#6196a6"/><path d="M544.31,241.665l19.8,21.1,4.99-3.792-20.966-22.407Z" fill="#fff"/><path d="M640.648,444.477c2.148,2.975,2.047,7.891.69,8.389-.8.294-17.086.822-17.324-.129-1.173-4.694,12.274-7.431,12.274-7.431"/><path d="M629.487,426.173l4.652,19.653a8.327,8.327,0,0,0,3.759.742,4.619,4.619,0,0,0,3.364-1.17l-.353-21.944" fill="#ffdacf"/><path d="M580.315,444.477c2.148,2.975,2.047,7.891.69,8.389-.8.294-17.086.822-17.324-.129-1.173-4.694,12.274-7.431,12.274-7.431"/><path d="M572.81,426.173l1,19.653a8.327,8.327,0,0,0,3.759.742,4.619,4.619,0,0,0,3.364-1.17l3.3-21.944" fill="#ffdacf"/><path d="M571.563,294.225c-7.954,67.919,1.9,144.246,1.9,144.246l9.131.7s19.411-101.2,24.259-105.452,9.318-18.445,1.792-36.657" fill="#53509e"/><path d="M580.93,439.095l-.983-.182c.047-.253,4.736-25.613,9.956-51.166,3.067-15.011,5.715-27.152,7.87-36.086,3.67-15.213,5.114-17.867,5.88-18.54,2.313-2.031,5.319-6.441,6.815-12.726,1.214-5.1,1.8-13.253-2.284-23.145l.924-.382a42.129,42.129,0,0,1,3.165,12.931,35.31,35.31,0,0,1-.832,10.827c-1.551,6.513-4.7,11.112-7.128,13.245-.286.251-.958,1.3-2.255,5.527-.922,3-2.036,7.205-3.312,12.5-2.153,8.922-4.8,21.051-7.862,36.051C585.663,413.492,580.976,438.842,580.93,439.095Z" fill="#273b93"/><path d="M575.167,309.367a16.778,16.778,0,0,1-4.821-.72l.315-.949c.044.015,4.49,1.45,8.3.048,2.82-1.036,3.273-5.669,3.277-5.716l1,.089c-.019.216-.513,5.31-3.929,6.565A12.047,12.047,0,0,1,575.167,309.367Z" fill="#273b93"/><path d="M582.683,439.175l-9.632-.736-.241-3.016,10.618.812Z" fill="#273b93"/><path d="M596.777,297.11c11.125,83.026,35.852,142.107,35.852,142.107l9.1-1s9.1-138.056-8.165-150.658" fill="#53509e"/><path d="M604.029,343.433c-.059-.318-5.874-32.033-7.772-49.27l.994-.109c1.894,17.2,7.7,48.88,7.762,49.2Z" fill="#273b93"/><path d="M599.588,316.837a5.376,5.376,0,0,1-3.352-1.206c-.241-.193-.741-.594-2.208-7.5-.708-3.335-1.306-6.618-1.312-6.651l.984-.179c.006.032.584,3.206,1.275,6.473,1.257,5.946,1.766,6.928,1.9,7.088a4.238,4.238,0,0,0,3.047.959l.158.987A3.335,3.335,0,0,1,599.588,316.837Z" fill="#273b93"/><path d="M641.118,437.315l-1-.033c.011-.345,1.129-34.957.308-70.471-.482-20.849-1.528-37.923-3.108-50.747a125.331,125.331,0,0,0-3.376-18.324c-1.41-4.932-3.028-8.067-4.81-9.318l.575-.818c2,1.406,3.7,4.632,5.2,9.862a126.3,126.3,0,0,1,3.407,18.478c1.584,12.857,2.632,29.965,3.115,50.848C642.247,402.334,641.129,436.97,641.118,437.315Z" fill="#273b93"/><path d="M629.046,310.073a30.629,30.629,0,0,1-5.428-.448,6.874,6.874,0,0,1-4.881-3.491,8.394,8.394,0,0,1-.985-2.77l.992-.13a7.521,7.521,0,0,0,.881,2.438,5.825,5.825,0,0,0,4.173,2.97,40.366,40.366,0,0,0,12.915-.268l.2.981A44.234,44.234,0,0,1,629.046,310.073Z" fill="#273b93"/><path d="M641.732,438.214l-9.6,1.057-.795-2.92,10.585-1.166Z" fill="#273b93"/><path d="M632.085,224.692c8.14,17.037,16.007,70.422,10.7,75.725-8.687,8.687-64.77,8.887-73.657,0-1.893-1.894-1.074-14.838.031-26.972,1.862-20.457,3.39-40.853,3.39-40.853s14.611-24.655,26.988-24.655S632.085,224.692,632.085,224.692Z" fill="#6196a6"/><path d="M571.057,257.521l-1-.1c.018-.187,1.815-18.781.477-24.353l.972-.233C572.888,238.571,571.132,256.75,571.057,257.521Z" fill="#5481db"/><path d="M680.956,200.382s2.046-7.262,2.131-9.03-.613-2.9-1.106-5.775c-.133-.777-.76-3.309.051-3.553.53-.16.861,2.223,1.444,2.047s.641-5.49,1.4-5.8.193,5.032.193,5.032.829-5.564,1.539-5.655-.232,5.573-.232,5.573,1.051-5.274,1.668-5.05c.527.191-.236,5.07-.236,5.07s1.041-4.168,1.665-3.8c.43.25-.426,3.8-.629,5.34-.218,1.654,1.137,3.34-.65,6.9-.1.341-3.095,10.841-3.095,10.841" fill="#ffdacf"/><path d="M645.825,217.156c6.435,2.849,14.807,4.741,17.005,3.6,6.631-3.429,20.217-29,20.217-29l5.146-.08s-3.975,46.112-20.1,56.164c-6.882,4.289-21.786,3.765-28.834.96" fill="#ffdacf"/><path d="M686.639,189.029l-.985-.172c.323-1.85-1.911-3.47-1.934-3.486l.58-.815C684.413,184.637,687.07,186.555,686.639,189.029Z" fill="#f7a794"/><path d="M602.6,210.855a56.024,56.024,0,0,1,36.511,3.284c2.361,1.06,12.055,5.049,14.151,5.977l-4.356,30.868a95.448,95.448,0,0,1-23.013-4.809" fill="#6196a6"/><path d="M13.232,3.973-.126.484.126-.484,13.484,3.006Z" transform="translate(625.898 246.175)" fill="#5481db"/><path d="M647.451,252.239l1.121-34.484L656.545,219l-2.636,33.758Z" fill="#fff"/><path d="M585.272,191.148a3.623,3.623,0,1,0,3.367-4.116A3.768,3.768,0,0,0,585.272,191.148Z" fill="#ff8080"/><path d="M587.009,191.205a2.379,2.379,0,1,0,2.193-2.814A2.535,2.535,0,0,0,587.009,191.205Z" fill="#ffb0b0"/><path d="M590.887,179.055c-2.514.859-3.277,7.523-2.43,9.79a3.061,3.061,0,0,0,3.034,2.17,3.306,3.306,0,0,0,2.872-2.633"/><path d="M588.973,190.139a2.148,2.148,0,0,1,1.477-.4c2.059.307,1.37,6.131-.139,5.977C587.739,195.456,586.887,191.534,588.973,190.139Z" fill="#fccabe"/><path d="M593.72,198.891l-1.209,10.47s.875,7.812,5.213,7.99c7.274.3,13.667-8.782,13.667-8.782L605.7,192.976" fill="#ffdacf"/><path d="M.5,22.259l-1-.09L1.519-.045l1,.09Z" transform="translate(595.707 217.352)" fill="#5481db"/><path d="M610.307,205.6s-7.37,9.876-12.583,11.755l4.227,6.16c6.349-1.945,11.733-14.55,11.733-14.55Z" fill="#fff"/><path d="M592.767,207.144s1.473,7.708,4.957,10.207l-3.484,5.83c-3.464-1.945-4.371-13.368-4.371-13.368Z" fill="#fff"/><path d="M599.794,223.511a.639.639,0,1,1-.639-.639A.639.639,0,0,1,599.794,223.511Z" fill="#5481db"/><path d="M599.347,230.679a.638.638,0,1,1-.638-.639A.639.639,0,0,1,599.347,230.679Z" fill="#5481db"/><path d="M598.709,238.428a.639.639,0,1,1-.639-.639A.639.639,0,0,1,598.709,238.428Z" fill="#5481db"/><path d="M590.981,181.234s-2.664,11.73-.094,16.7c2.866,5.539,9.419,4.215,12.32,1.75,3.326-2.826,3.224-9.933,3.224-12.141C606.431,181.549,594.134,178.081,590.981,181.234Z" fill="#ffdacf"/><path d="M597.938,193.759a9.1,9.1,0,0,1-1.255-.182c-.381-.086-1.54-.346-1.621-1.185a18.277,18.277,0,0,1,1.234-4.354l.935.355a20.4,20.4,0,0,0-1.175,3.876,2.11,2.11,0,0,0,.979.361,8.356,8.356,0,0,0,.968.132Z" fill="#f7a794"/><path d="M600.932,188.862a.766.766,0,0,0,.542.913c.352.04.679-.3.731-.77a.765.765,0,0,0-.542-.913C601.312,188.052,600.984,188.4,600.932,188.862Z"/><path d="M591.251,188.549a.768.768,0,0,0,.542.914c.352.039.679-.306.731-.771a.765.765,0,0,0-.542-.913C591.631,187.74,591.3,188.084,591.251,188.549Z"/><path d="M603.75,187.668c-1.018-.71-2.968-1.189-3.707-.714l-.54-.841c1.262-.81,3.65-.079,4.819.736Z"/><path d="M593.359,186.953a3.443,3.443,0,0,0-2.369-.529l-.206-.979a4.456,4.456,0,0,1,3.119.669Z"/><path d="M600.785,196.009l-6.433-.288s-.133,3.156,2.788,3.156C601.038,198.877,600.785,196.009,600.785,196.009Z" fill="#fff"/><path d="M597.554,202.319a17.432,17.432,0,0,1-4.236-.53l.247-.969c3.029.771,7.237.8,9.319-.973.9-.769,1.686-2.382,2.321-4.794l.967.255c-.7,2.651-1.562,4.385-2.641,5.3a8.359,8.359,0,0,1-4.754,1.662C598.378,202.3,597.968,202.319,597.554,202.319Z" fill="#f7a794"/><path d="M608.142,191.1a2.152,2.152,0,0,0-1.328-.759c-2.071-.223-2.873,5.587-1.374,5.819C607.995,196.553,609.809,192.973,608.142,191.1Z" fill="#ffdacf"/><path d="M610.392,189.231a13.62,13.62,0,0,0,.251-2.286c.1-2.952-.031-6.2-1.68-8.766-2.011-3.127-5.787-4.289-9.288-4.706a10.209,10.209,0,0,0-9.043,3.791,7.475,7.475,0,0,0-1.754,4.607,1.911,1.911,0,0,0,.265,1.084c.487.7,1.65.624,2.4.71a4.828,4.828,0,0,0,2.962-.9,5.142,5.142,0,0,0,6.119.425,1.235,1.235,0,0,0,.9,1.177,5.849,5.849,0,0,0,1.55.165,1.9,1.9,0,0,1,1.408.591,2.466,2.466,0,0,1,.364,1.425q.06,1.3.121,2.6c.055,1.167.177,2.48,1.053,3.217,1.076.905,2.645.284,3.4-.737A6.146,6.146,0,0,0,610.392,189.231Z"/><path d="M603.665,197.551a6.081,6.081,0,0,0,.878-.18,3.877,3.877,0,0,0,2.193-1.539,1.672,1.672,0,0,0,.321-.939.136.136,0,0,0-.137-.135.137.137,0,0,0-.136.138,1.4,1.4,0,0,1-.276.786,3.607,3.607,0,0,1-2.041,1.427,8.746,8.746,0,0,1-2.51.244.137.137,0,0,0,0,.273A12.175,12.175,0,0,0,603.665,197.551Z" fill="#081466"/><path d="M601.323,197.175a1.012,1.012,0,0,1,.766-.074c.879.237-.013,1.379-.821.846a.521.521,0,0,1-.165-.162A.468.468,0,0,1,601.323,197.175Z" fill="#081466"/><path d="M604.243,191.548a3.623,3.623,0,1,0,3.843-3.676A3.766,3.766,0,0,0,604.243,191.548Z" fill="#ff8080"/><path d="M605.961,191.816a2.379,2.379,0,1,0,2.519-2.527A2.533,2.533,0,0,0,605.961,191.816Z" fill="#ffb0b0"/><path d="M609.361,189.411h-.032a.566.566,0,0,1-.533-.6c.287-5.03-1.54-9-5.144-11.18a11.435,11.435,0,0,0-11.516-.026c-1.872,1.123-4.323,3.442-3.983,10.581a.566.566,0,1,1-1.13.054c-.277-5.814,1.205-9.61,4.532-11.605a12.426,12.426,0,0,1,12.683.028c3.98,2.406,6,6.743,5.687,12.212A.564.564,0,0,1,609.361,189.411Z" fill="#ff8080"/><path d="M648.609,124.13a24.6,24.6,0,0,0-21.281,41.863l-3.322,6.746,7.457-3.483a24.608,24.608,0,1,0,17.146-45.126Z" fill="#fff"/><path d="M644.484,123.283h0a25.374,25.374,0,0,1,4.206.354,25.112,25.112,0,0,1-4.149,49.873,25.364,25.364,0,0,1-4.205-.354,24.953,24.953,0,0,1-8.908-3.333l-7.212,3.369a.5.5,0,0,1-.66-.674l3.163-6.424a25.359,25.359,0,0,1-6.016-9.732,25.112,25.112,0,0,1,23.779-33.079Zm.059,49.226a24.111,24.111,0,0,0,3.983-47.887,24.371,24.371,0,0,0-4.04-.34,24.1,24.1,0,0,0-16.808,41.352.5.5,0,0,1,.1.578l-2.694,5.47,6.169-2.881a.5.5,0,0,1,.477.029,23.964,23.964,0,0,0,8.776,3.338A24.36,24.36,0,0,0,644.543,172.51Z" fill="#bfd7fa"/><path d="M632.307,161.239l-2.83-3.393a3.083,3.083,0,0,1,.392-4.344l3.26-2.719a3.082,3.082,0,0,1,4.343.392s1.506,2.263,3.273,1.859c2.01-.46,6.381-3.65,8.734-6.122,1.657-1.741-1.129-4.813-1.129-4.813a3.083,3.083,0,0,1,.392-4.344L652,135.036a3.084,3.084,0,0,1,4.344.392l2.831,3.393C665.556,146.468,637.867,167.9,632.307,161.239Z" fill="#bfd7fa"/><path d="M194.62,444.921c2.04,2.825,1.944,7.493.655,7.966-.76.279-16.224.78-16.449-.123-1.114-4.457,11.655-7.056,11.655-7.056"/><path d="M182.058,427.54,188.44,446.2a7.894,7.894,0,0,0,3.569.7,4.381,4.381,0,0,0,3.194-1.11l-2.3-20.837" fill="#ffdacf"/><path d="M133.818,444.921c2.04,2.825,1.944,7.493.655,7.966-.761.279-16.224.78-16.45-.123-1.114-4.457,11.655-7.056,11.655-7.056"/><path d="M124.542,427.54l3.1,18.662a7.889,7.889,0,0,0,3.569.7,4.384,4.384,0,0,0,3.194-1.11l.987-20.837" fill="#ffdacf"/><path d="M158.076,283.743c5.531,48.664-16.176,115.373-21.549,153.943h-12.18s-5.023-30.858-5.353-76.323c-.358-49.33,3.429-66.429,3.429-66.429l.11-5.374" fill="#53509e"/><path d="M140.547,284.97c5.718,72.14,44.217,152.786,44.217,152.786H194.83s-2.868-54.411-12.241-105.279c1.454-14.2.383-25.312-7.82-37.839l-.617-5.008" fill="#53509e"/><path d="M147.067,296.483c-3.151,0-6.034-.05-8.549-.122-9.61-.276-16.081-.923-16.146-.929l.1-.995c.064.006,6.507.65,16.084.925a264.017,264.017,0,0,0,35.806-1.29l.112.994A250.048,250.048,0,0,1,147.067,296.483Z" fill="#273b93"/><path d="M145.256,296.486h-3.939a1.526,1.526,0,0,1-1.473-1.547l-.117-4.237a1.665,1.665,0,0,1,.458-1.2,1.41,1.41,0,0,1,1.015-.438h4.056v1H141.2a.417.417,0,0,0-.3.135.661.661,0,0,0-.175.479l.117,4.237a.544.544,0,0,0,.473.575h3.939Z" fill="#273b93"/><path d="M161.138,295.7l-1-.051a30.091,30.091,0,0,0-.33-5.99l.982-.19A30.523,30.523,0,0,1,161.138,295.7Z" fill="#273b93"/><path d="M130.267,295.693a34.731,34.731,0,0,1,.3-6.217l.986.167a34.344,34.344,0,0,0-.289,6Z" fill="#273b93"/><ellipse cx="0.992" cy="1.075" rx="0.992" ry="1.075" transform="translate(142.113 291.638)" fill="#fff"/><path d="M174.419,300.7h-7.081c-3.054,0-4.507-4.683-4.568-4.882l.957-.29-.479.145.478-.145c.013.042,1.3,4.172,3.611,4.172h7.081Z" fill="#273b93"/><path d="M192.126,437.732c-.015-.16-1.5-16.19-3.949-36.911-2.258-19.121-5.819-46.258-9.957-66.96a15.794,15.794,0,0,1-.257-4.054,77.788,77.788,0,0,0-2.581-25.117,54.511,54.511,0,0,0-3.529-9.665l.887-.462a54.3,54.3,0,0,1,3.6,9.829,77.078,77.078,0,0,1,2.193,11.145,79,79,0,0,1,.43,14.33,14.8,14.8,0,0,0,.239,3.8c4.145,20.734,7.71,47.9,9.97,67.041,2.449,20.734,3.937,36.774,3.952,36.934Z" fill="#273b93"/><path d="M152.248,351.517c-.076-.278-7.6-27.948-10-39.649l.98-.2c2.388,11.67,9.906,39.309,9.982,39.587Z" fill="#273b93"/><path d="M127.9,301.293c-.577,0-1.258-.029-2.064-.1-2.014-.167-3.831-.493-3.908-.507l.178-.984c.018,0,1.852.332,3.819.495,3.516.291,4.3-.2,4.459-.356,1.225-1.225,2.1-4.279,2.109-4.31l.962.272c-.038.135-.955,3.335-2.365,4.744C130.757,300.89,130.056,301.293,127.9,301.293Z" fill="#273b93"/><path d="M135.624,437.749l-.992-.126c2.015-15.857,4.31-31.26,6.821-45.782,2.756-15.943,5.882-31.466,9.291-46.137l.974.226A910.06,910.06,0,0,0,135.624,437.749Z" fill="#273b93"/><path d="M136.943,439.862l-12.564-.386-.477-3.882,13.195.425Z" fill="#273b93"/><path d="M195.639,439.322l-11.478.709-.782-3.824,12.056-.724Z" fill="#273b93"/><path d="M98.657,222.316l-1.918-24.367-4.927-1.019-7.305,29.893" fill="#ffdacf"/><path d="M140.371,209.535s-6.9-1.353-16.8,2.047c-11.282,3.871-23.031,13.762-23.031,13.762l-1.587-15.622-9.469-3.9s-14.2,35.727-1.7,43c14.951,8.693,51.143-4.06,51.143-4.06" fill="#6196a6"/><path d="M.577,10.58-.5.051.5-.051l1.075,10.53Z" transform="translate(100.538 225.344)" fill="#cacaca"/><path d="M100.394,214.817,86.23,211.87l1.839-7.242,12.965,4.1Z" fill="#6196a6"/><path d="M96.578,202.361l.161-4.412a19.127,19.127,0,0,0,2.974-4.031c.581-1.064,1.674-4.053,1.251-4.5s-2.108,2.063-2.289,1.871.866-6-.167-6.318c-.523-.159-1.522,5.479-1.522,5.479s1.257-6.053.369-6.172-1.84,5.753-1.84,5.753,1.041-5.524.29-5.624-1.64,5.332-1.64,5.332.695-4.87.2-4.771c-.752.151-1.731,3.312-2.414,8.047-.119.821-.082,3.7-.113,3.918s-.872,5.073-.872,5.073" fill="#ffdacf"/><path d="M98.141,191.709c-1.411.681-2.891,1.421-3.6,2.621A4.564,4.564,0,0,0,94,196.688" fill="#ffdacf"/><path d="M94.5,196.689l-1,0a4.972,4.972,0,0,1,.608-2.612c.809-1.365,2.476-2.17,3.815-2.816l.435.9c-1.218.588-2.734,1.319-3.389,2.426A4.033,4.033,0,0,0,94.5,196.689Z" fill="#f7a794"/><path d="M142.674,192.917c-2.138-1.741-1.813-5.334-1.374-7.956.611-3.65,1.956-7.236,4.821-8.97a9.965,9.965,0,0,1,13.168,2.889c5.059,2.406,3.843,10.526,2.584,14.256-1.764,5.228-4.924,6.864-8.048,6.239"/><path d="M182.835,227.013c4.953,12.64-6.782,61.029-9.033,62.547-2.589,1.747-48.624,2.645-51.269,0-1.085-1.084-.34-2.4-.11-7.324.353-7.528.474-22.522-1.376-50.431.486-14.073,14.555-24.277,26.308-24.277S182.835,227.013,182.835,227.013Z" transform="translate(0 0.05)" fill="#6196a6"/><path d="M.474,17.648-.5.028l1-.055.973,17.62Z" transform="translate(121.047 231.805)" fill="#cacaca"/><path d="M235.705,270.5s5.822,4.351,7.38,4.983c1.466.16,2.829.129,5.562.592.738.125,3.2.36,3.167,1.164-.023.524-2.263.072-2.289.649s4.717,2.3,4.757,3.078-4.569-1.41-4.569-1.41,4.724,2.493,4.582,3.158-4.92-1.961-4.92-1.961,4.394,2.6,4,3.083c-.337.412-4.468-1.806-4.468-1.806s3.407,2.244,2.885,2.688c-.36.306-3.273-1.577-4.587-2.243-1.413-.716-3.35-.032-5.978-2.752-.275-.2-9.188-2.6-9.188-2.6" fill="#ffdacf"/><path d="M245.661,279.584a3.2,3.2,0,0,1-1.584-.4l.488-.873c1.549.866,3.682-.621,3.7-.636l.578.816A6.256,6.256,0,0,1,245.661,279.584Z" fill="#f7a794"/><path d="M192.418,231.765s16.391,17.037,19.157,19.774c4.722,4.675,31.51,23.946,31.51,23.946l-1.858,4.24s-28.864-3.438-48.375-15.035c-5.339-3.174-17.544-15.243-17.544-15.243" fill="#ffdacf"/><path d="M153.263,207.233c8.2,1.431,22.15,2.475,32.613,12.433,9.95,9.471,15.281,17.774,24.51,28.7a75.743,75.743,0,0,0,16.337,14.257l-9.1,12.806s-20.441-6.231-26.674-10.891-22.27-19.688-22.27-19.688" fill="#6196a6"/><path d="M12.494,12.042-.336.37.336-.37,13.167,11.3Z" transform="translate(168.684 244.852)" fill="#cacaca"/><path d="M215.094,275.637l8.753-15.544,6.1,4.441L220.6,278.317Z" fill="#fff"/><path d="M144.989,189.846l-4.309,19.033s.83,7.419,4.949,7.588c6.908.284,12.8-8.1,12.8-8.1l-2.87-15.048" fill="#ffdacf"/><path d="M.5,21.138l-1-.09L1.417-.045l1,.09Z" transform="translate(143.714 216.467)" fill="#cacaca"/><path d="M157.756,204.835s-7.177,9.847-12.127,11.632l4.014,5.849c6.029-1.847,11.141-13.816,11.141-13.816Z" fill="#fff"/><path d="M140.923,206.774s1.4,7.32,4.706,9.693L142.321,222c-3.289-1.848-4.15-12.694-4.15-12.694Z" fill="#fff"/><path d="M147.6,222.316a.606.606,0,1,1-.607-.607A.607.607,0,0,1,147.6,222.316Z" fill="#5481db"/><path d="M147.171,229.122a.607.607,0,1,1-.607-.607A.606.606,0,0,1,147.171,229.122Z" fill="#5481db"/><path d="M146.564,236.48a.606.606,0,1,1-.606-.606A.606.606,0,0,1,146.564,236.48Z" fill="#5481db"/><path d="M142.417,180.365s-4.717,12.772-3.165,17.85c1.182,3.868,7.8,4.1,10.961,2.349,3.623-2.011,5-9.393,5.414-11.448C156.743,183.538,145.94,178.017,142.417,180.365Z" fill="#ffdacf"/><path d="M143.924,188.506a.655.655,0,1,0,.855-.6A.753.753,0,0,0,143.924,188.506Z"/><path d="M153.632,190.562a10.218,10.218,0,0,0,.273,2.6,2.2,2.2,0,0,0,.459.925,1.759,1.759,0,0,0,1.857.358c.629-.224,3.436-5.659,1.7-10.33-1.16-3.119-2.846-5.107-6.021-6.107a18.241,18.241,0,0,0-5.59-.738c-1.662.011-3.209.819-4.916.777a18.1,18.1,0,0,0-2.23-.088,2.188,2.188,0,0,0-1.825,1.1c-.488,1.077.422,2.273,1.392,2.947a9.213,9.213,0,0,0,6.064,1.593c1.232-.115,2.435-.481,3.672-.523.1.594-1.012.8-.982,1.4.013.284.289.477.545.6a8.463,8.463,0,0,0,2.929.378,2.771,2.771,0,0,1,1.725.7,2.632,2.632,0,0,1,.567.98c1.125,3.177-.011,7.289.035,10.6a2.021,2.021,0,0,0,.541,1.633,1.608,1.608,0,0,0,1.4.149c1.365-.372,6.283-.33,7.155-9.372"/><path d="M147,186.736a6.316,6.316,0,0,0-3.394-.312l-.184-.983a7.228,7.228,0,0,1,3.938.362Z"/><path d="M140.729,186.946s-4.375,3.244-3.454,4.2a8.563,8.563,0,0,0,2.752,1.6" fill="#ffdacf"/><path d="M149.567,197.913a5.65,5.65,0,0,0,.848-.076,3.681,3.681,0,0,0,2.234-1.216,1.6,1.6,0,0,0,.4-.852.13.13,0,0,0-.116-.142.128.128,0,0,0-.142.115,1.351,1.351,0,0,1-.345.713,3.43,3.43,0,0,1-2.079,1.127,8.3,8.3,0,0,1-2.394-.039.13.13,0,1,0-.032.258A11.55,11.55,0,0,0,149.567,197.913Z" fill="#081466"/><path d="M147.4,197.307a.957.957,0,0,1,.73.013c.8.318-.16,1.3-.865.71a.49.49,0,0,1-.138-.171A.445.445,0,0,1,147.4,197.307Z" fill="#081466"/><path d="M150.308,192.233a3.9,3.9,0,1,0,4.552-3.463A4.05,4.05,0,0,0,150.308,192.233Z" fill="#ff8080"/><path d="M152.348,192.748A2.259,2.259,0,1,0,155,190.634,2.4,2.4,0,0,0,152.348,192.748Z" fill="#ffb0b0"/><path d="M145.443,195.3l-5.293-1.4s-.667,2.918,1.759,3.434C145.148,198.018,145.443,195.3,145.443,195.3Z" fill="#fff"/><path d="M155.478,190.311l-.023-.005a.506.506,0,0,1-.3-.62c.942-4.688.2-8.618-2.093-11.068a6.607,6.607,0,0,0-8.332-1.32,5.843,5.843,0,0,0-.53.365l-1.221.219a5.327,5.327,0,0,1,1.7-1.513,7.04,7.04,0,0,1,8.952,1.406c2.53,2.706,3.361,7,2.337,12.1A.48.48,0,0,1,155.478,190.311Z" fill="#ff8080"/><path d="M146.265,202.309a11.994,11.994,0,0,1-4.014-.715l.367-.93a11.159,11.159,0,0,0,3.853.643,6.16,6.16,0,0,0,5.792-3.613l.9.441a7.185,7.185,0,0,1-6.7,4.173Z" fill="#f7a794"/><path d="M62.738,134.2A23.159,23.159,0,0,1,96.18,163.115l5.295,4.7-7.738-.383a23.167,23.167,0,1,1-31-33.233Z" fill="#fff"/><path d="M74.917,130.221a23.651,23.651,0,0,1,21.864,32.758l5.026,4.46a.5.5,0,0,1-.357.873l-7.468-.37a23.67,23.67,0,0,1-19.021,9.619A23.651,23.651,0,0,1,54.82,166.355a23.671,23.671,0,0,1,20.1-36.134Zm25.163,37.022-4.231-3.754a.5.5,0,0,1-.127-.573,22.549,22.549,0,1,0-2.39,4.222.5.5,0,0,1,.431-.207Z" fill="#bfd7fa"/><path d="M80.6,165.886a2.111,2.111,0,0,1-1.655,2.155,19.807,19.807,0,0,1-4.641.921c-3.562-.1-5.111-2.206-4.346-5.682.6-2.726,1.748-6.67,2.384-9.389.7-3-.375-3.963-3.365-3.123-.236.066-.474.123-.793.207a1.855,1.855,0,0,1,1.43-2.115,25.48,25.48,0,0,1,4.782-1.025c3.572-.359,5.208,1.978,4.339,5.934-.465,2.123-1.451,5.472-1.988,7.581a17.428,17.428,0,0,0-.559,3.094c-.084,1.251.485,1.8,1.739,1.866a6.793,6.793,0,0,0,1.4-.132C79.748,166.111,80.158,165.99,80.6,165.886Z" fill="#bfd7fa"/><path d="M77.316,138.819a3.553,3.553,0,1,1-3.751,3.62A3.751,3.751,0,0,1,77.316,138.819Z" fill="#bfd7fa"/></g></svg>