<svg xmlns="http://www.w3.org/2000/svg" width="46.711" height="46.616" viewBox="0 0 46.711 46.616"><g transform="translate(-341.8 -598.798)"><g transform="translate(341.8 598.798)"><path d="M532.127,610.455c-.153.939-.248,1.891-.47,2.813a11.187,11.187,0,0,1-2.425,4.684c-.8.934-1.658,1.818-2.477,2.736a.414.414,0,0,1-.542.137,13.319,13.319,0,0,0-7.153-.816,13.482,13.482,0,0,0-5.864,2.459c-.245.177-.483.364-.683.515l-11.572-11.549c.152-.132.345-.281.516-.452q4.7-4.68,9.387-9.366a12.245,12.245,0,0,1,5.211-3.225c.9-.265,1.833-.4,2.751-.594h1.916a26.369,26.369,0,0,1,3.431.834,11.865,11.865,0,0,1,7.5,8.289,25.836,25.836,0,0,1,.47,2.805Z" transform="translate(-485.416 -597.798)" fill="#5f5d9c"/><path d="M364.8,753.681c.108-.717.182-1.442.331-2.15a11.965,11.965,0,0,1,3.32-6.059q4.869-4.894,9.764-9.762a1.4,1.4,0,0,1,.112-.094l11.506,11.492c-.444.7-.961,1.421-1.369,2.194a13.072,13.072,0,0,0-.695,11.118.721.721,0,0,1-.207.933,44.286,44.286,0,0,1-3.317,2.974,11.7,11.7,0,0,1-8.737,2.05,12.139,12.139,0,0,1-7.705-4.193,11.962,11.962,0,0,1-2.927-7.013c-.014-.164-.05-.326-.076-.488Z" transform="translate(-364.8 -719.899)" fill="#5f5d9c"/><path d="M700.1,827.184a21.4,21.4,0,0,1-.717,3.263,10.686,10.686,0,0,1-8.588,7.02,1.625,1.625,0,0,1-.259,0v-21.56c.7.172,1.382.283,2.026.511a10.746,10.746,0,0,1,7.311,8.241c.119.528.154,1.074.228,1.612Z" transform="translate(-653.384 -791.035)" fill="#6196a6"/><path d="M591.32,816.171v21.57a10.56,10.56,0,0,1-7.537-4.52,10.4,10.4,0,0,1-.483-11.78A10.608,10.608,0,0,1,591.32,816.171Z" transform="translate(-556.966 -791.268)" fill="#6196a6"/></g></g></svg>